<?xml version="1.0" encoding="utf-8" standalone="no"?>
<!DOCTYPE svg PUBLIC "-//W3C//DTD SVG 1.1//EN"
  "http://www.w3.org/Graphics/SVG/1.1/DTD/svg11.dtd">
<!-- Created with matplotlib (https://matplotlib.org/) -->
<svg height="648pt" version="1.1" viewBox="0 0 648 648" width="648pt" xmlns="http://www.w3.org/2000/svg" xmlns:xlink="http://www.w3.org/1999/xlink">
 <defs>
  <style type="text/css">
*{stroke-linecap:butt;stroke-linejoin:round;}
  </style>
 </defs>
 <g id="figure_1">
  <g id="patch_1">
   <path d="M 0 648 
L 648 648 
L 648 0 
L 0 0 
z
" style="fill:#ffffff;"/>
  </g>
  <g id="axes_1">
   <g id="patch_2">
    <path d="M 42.1 620.12 
L 408.892216 620.12 
L 408.892216 25.44 
L 42.1 25.44 
z
" style="fill:#ffffff;"/>
   </g>
   <g id="PathCollection_1">
    <defs>
     <path d="M 0 3 
C 0.795609 3 1.55874 2.683901 2.12132 2.12132 
C 2.683901 1.55874 3 0.795609 3 0 
C 3 -0.795609 2.683901 -1.55874 2.12132 -2.12132 
C 1.55874 -2.683901 0.795609 -3 0 -3 
C -0.795609 -3 -1.55874 -2.683901 -2.12132 -2.12132 
C -2.683901 -1.55874 -3 -0.795609 -3 0 
C -3 0.795609 -2.683901 1.55874 -2.12132 2.12132 
C -1.55874 2.683901 -0.795609 3 0 3 
z
" id="m0f91125901" style="stroke:#000000;"/>
    </defs>
    <g clip-path="url(#p5b6f649161)">
     <use style="stroke:#000000;" x="69.951303" xlink:href="#m0f91125901" y="502.094938"/>
     <use style="stroke:#000000;" x="66.070127" xlink:href="#m0f91125901" y="504.780104"/>
     <use style="stroke:#000000;" x="149.756961" xlink:href="#m0f91125901" y="593.089091"/>
     <use style="stroke:#000000;" x="62.103906" xlink:href="#m0f91125901" y="503.166642"/>
     <use style="stroke:#000000;" x="383.72353" xlink:href="#m0f91125901" y="511.824805"/>
     <use style="stroke:#000000;" x="260.258702" xlink:href="#m0f91125901" y="58.405494"/>
     <use style="stroke:#000000;" x="259.628013" xlink:href="#m0f91125901" y="52.470909"/>
     <use style="stroke:#000000;" x="260.847927" xlink:href="#m0f91125901" y="98.277553"/>
     <use style="stroke:#000000;" x="258.575708" xlink:href="#m0f91125901" y="384.062647"/>
     <use style="stroke:#000000;" x="373.5725" xlink:href="#m0f91125901" y="502.379263"/>
     <use style="stroke:#000000;" x="381.204231" xlink:href="#m0f91125901" y="509.498979"/>
     <use style="stroke:#000000;" x="260.353633" xlink:href="#m0f91125901" y="55.292711"/>
     <use style="stroke:#000000;" x="63.680004" xlink:href="#m0f91125901" y="499.408862"/>
     <use style="stroke:#000000;" x="69.31867" xlink:href="#m0f91125901" y="494.23399"/>
     <use style="stroke:#000000;" x="374.307871" xlink:href="#m0f91125901" y="490.043126"/>
     <use style="stroke:#000000;" x="337.986864" xlink:href="#m0f91125901" y="588.393764"/>
     <use style="stroke:#000000;" x="308.419615" xlink:href="#m0f91125901" y="554.44736"/>
     <use style="stroke:#000000;" x="98.797132" xlink:href="#m0f91125901" y="260.7082"/>
     <use style="stroke:#000000;" x="372.925271" xlink:href="#m0f91125901" y="487.67423"/>
     <use style="stroke:#000000;" x="66.112277" xlink:href="#m0f91125901" y="502.474258"/>
     <use style="stroke:#000000;" x="58.772373" xlink:href="#m0f91125901" y="505.912991"/>
     <use style="stroke:#000000;" x="363.250345" xlink:href="#m0f91125901" y="274.40651"/>
     <use style="stroke:#000000;" x="344.901925" xlink:href="#m0f91125901" y="591.494158"/>
     <use style="stroke:#000000;" x="392.219843" xlink:href="#m0f91125901" y="545.115542"/>
     <use style="stroke:#000000;" x="389.141697" xlink:href="#m0f91125901" y="543.165123"/>
     <use style="stroke:#000000;" x="257.362197" xlink:href="#m0f91125901" y="284.973468"/>
     <use style="stroke:#000000;" x="61.189739" xlink:href="#m0f91125901" y="504.217637"/>
     <use style="stroke:#000000;" x="61.069659" xlink:href="#m0f91125901" y="504.040938"/>
     <use style="stroke:#000000;" x="321.691569" xlink:href="#m0f91125901" y="557.757545"/>
     <use style="stroke:#000000;" x="384.620376" xlink:href="#m0f91125901" y="586.040815"/>
    </g>
   </g>
   <g id="matplotlib.axis_1">
    <g id="xtick_1">
     <g id="line2d_1">
      <defs>
       <path d="M 0 0 
L 0 3.5 
" id="m9e1c79d2f6" style="stroke:#000000;stroke-width:0.8;"/>
      </defs>
      <g>
       <use style="stroke:#000000;stroke-width:0.8;" x="99.049582" xlink:href="#m9e1c79d2f6" y="620.12"/>
      </g>
     </g>
     <g id="text_1">
      <!-- −0.4 -->
      <defs>
       <path d="M 10.59375 35.5 
L 73.1875 35.5 
L 73.1875 27.203125 
L 10.59375 27.203125 
z
" id="DejaVuSans-8722"/>
       <path d="M 31.78125 66.40625 
Q 24.171875 66.40625 20.328125 58.90625 
Q 16.5 51.421875 16.5 36.375 
Q 16.5 21.390625 20.328125 13.890625 
Q 24.171875 6.390625 31.78125 6.390625 
Q 39.453125 6.390625 43.28125 13.890625 
Q 47.125 21.390625 47.125 36.375 
Q 47.125 51.421875 43.28125 58.90625 
Q 39.453125 66.40625 31.78125 66.40625 
z
M 31.78125 74.21875 
Q 44.046875 74.21875 50.515625 64.515625 
Q 56.984375 54.828125 56.984375 36.375 
Q 56.984375 17.96875 50.515625 8.265625 
Q 44.046875 -1.421875 31.78125 -1.421875 
Q 19.53125 -1.421875 13.0625 8.265625 
Q 6.59375 17.96875 6.59375 36.375 
Q 6.59375 54.828125 13.0625 64.515625 
Q 19.53125 74.21875 31.78125 74.21875 
z
" id="DejaVuSans-48"/>
       <path d="M 10.6875 12.40625 
L 21 12.40625 
L 21 0 
L 10.6875 0 
z
" id="DejaVuSans-46"/>
       <path d="M 37.796875 64.3125 
L 12.890625 25.390625 
L 37.796875 25.390625 
z
M 35.203125 72.90625 
L 47.609375 72.90625 
L 47.609375 25.390625 
L 58.015625 25.390625 
L 58.015625 17.1875 
L 47.609375 17.1875 
L 47.609375 0 
L 37.796875 0 
L 37.796875 17.1875 
L 4.890625 17.1875 
L 4.890625 26.703125 
z
" id="DejaVuSans-52"/>
      </defs>
      <g transform="translate(86.908176 634.718438)scale(0.1 -0.1)">
       <use xlink:href="#DejaVuSans-8722"/>
       <use x="83.789062" xlink:href="#DejaVuSans-48"/>
       <use x="147.412109" xlink:href="#DejaVuSans-46"/>
       <use x="179.199219" xlink:href="#DejaVuSans-52"/>
      </g>
     </g>
    </g>
    <g id="xtick_2">
     <g id="line2d_2">
      <g>
       <use style="stroke:#000000;stroke-width:0.8;" x="168.055024" xlink:href="#m9e1c79d2f6" y="620.12"/>
      </g>
     </g>
     <g id="text_2">
      <!-- −0.2 -->
      <defs>
       <path d="M 19.1875 8.296875 
L 53.609375 8.296875 
L 53.609375 0 
L 7.328125 0 
L 7.328125 8.296875 
Q 12.9375 14.109375 22.625 23.890625 
Q 32.328125 33.6875 34.8125 36.53125 
Q 39.546875 41.84375 41.421875 45.53125 
Q 43.3125 49.21875 43.3125 52.78125 
Q 43.3125 58.59375 39.234375 62.25 
Q 35.15625 65.921875 28.609375 65.921875 
Q 23.96875 65.921875 18.8125 64.3125 
Q 13.671875 62.703125 7.8125 59.421875 
L 7.8125 69.390625 
Q 13.765625 71.78125 18.9375 73 
Q 24.125 74.21875 28.421875 74.21875 
Q 39.75 74.21875 46.484375 68.546875 
Q 53.21875 62.890625 53.21875 53.421875 
Q 53.21875 48.921875 51.53125 44.890625 
Q 49.859375 40.875 45.40625 35.40625 
Q 44.1875 33.984375 37.640625 27.21875 
Q 31.109375 20.453125 19.1875 8.296875 
z
" id="DejaVuSans-50"/>
      </defs>
      <g transform="translate(155.913618 634.718438)scale(0.1 -0.1)">
       <use xlink:href="#DejaVuSans-8722"/>
       <use x="83.789062" xlink:href="#DejaVuSans-48"/>
       <use x="147.412109" xlink:href="#DejaVuSans-46"/>
       <use x="179.199219" xlink:href="#DejaVuSans-50"/>
      </g>
     </g>
    </g>
    <g id="xtick_3">
     <g id="line2d_3">
      <g>
       <use style="stroke:#000000;stroke-width:0.8;" x="237.060466" xlink:href="#m9e1c79d2f6" y="620.12"/>
      </g>
     </g>
     <g id="text_3">
      <!-- 0.0 -->
      <g transform="translate(229.108903 634.718438)scale(0.1 -0.1)">
       <use xlink:href="#DejaVuSans-48"/>
       <use x="63.623047" xlink:href="#DejaVuSans-46"/>
       <use x="95.410156" xlink:href="#DejaVuSans-48"/>
      </g>
     </g>
    </g>
    <g id="xtick_4">
     <g id="line2d_4">
      <g>
       <use style="stroke:#000000;stroke-width:0.8;" x="306.065908" xlink:href="#m9e1c79d2f6" y="620.12"/>
      </g>
     </g>
     <g id="text_4">
      <!-- 0.2 -->
      <g transform="translate(298.114345 634.718438)scale(0.1 -0.1)">
       <use xlink:href="#DejaVuSans-48"/>
       <use x="63.623047" xlink:href="#DejaVuSans-46"/>
       <use x="95.410156" xlink:href="#DejaVuSans-50"/>
      </g>
     </g>
    </g>
    <g id="xtick_5">
     <g id="line2d_5">
      <g>
       <use style="stroke:#000000;stroke-width:0.8;" x="375.071349" xlink:href="#m9e1c79d2f6" y="620.12"/>
      </g>
     </g>
     <g id="text_5">
      <!-- 0.4 -->
      <g transform="translate(367.119787 634.718438)scale(0.1 -0.1)">
       <use xlink:href="#DejaVuSans-48"/>
       <use x="63.623047" xlink:href="#DejaVuSans-46"/>
       <use x="95.410156" xlink:href="#DejaVuSans-52"/>
      </g>
     </g>
    </g>
   </g>
   <g id="matplotlib.axis_2">
    <g id="ytick_1">
     <g id="line2d_6">
      <defs>
       <path d="M 0 0 
L -3.5 0 
" id="m814da730c7" style="stroke:#000000;stroke-width:0.8;"/>
      </defs>
      <g>
       <use style="stroke:#000000;stroke-width:0.8;" x="42.1" xlink:href="#m814da730c7" y="556.941449"/>
      </g>
     </g>
     <g id="text_6">
      <!-- −0.2 -->
      <g transform="translate(10.817188 560.740667)scale(0.1 -0.1)">
       <use xlink:href="#DejaVuSans-8722"/>
       <use x="83.789062" xlink:href="#DejaVuSans-48"/>
       <use x="147.412109" xlink:href="#DejaVuSans-46"/>
       <use x="179.199219" xlink:href="#DejaVuSans-50"/>
      </g>
     </g>
    </g>
    <g id="ytick_2">
     <g id="line2d_7">
      <g>
       <use style="stroke:#000000;stroke-width:0.8;" x="42.1" xlink:href="#m814da730c7" y="434.995055"/>
      </g>
     </g>
     <g id="text_7">
      <!-- 0.0 -->
      <g transform="translate(19.196875 438.794274)scale(0.1 -0.1)">
       <use xlink:href="#DejaVuSans-48"/>
       <use x="63.623047" xlink:href="#DejaVuSans-46"/>
       <use x="95.410156" xlink:href="#DejaVuSans-48"/>
      </g>
     </g>
    </g>
    <g id="ytick_3">
     <g id="line2d_8">
      <g>
       <use style="stroke:#000000;stroke-width:0.8;" x="42.1" xlink:href="#m814da730c7" y="313.048662"/>
      </g>
     </g>
     <g id="text_8">
      <!-- 0.2 -->
      <g transform="translate(19.196875 316.84788)scale(0.1 -0.1)">
       <use xlink:href="#DejaVuSans-48"/>
       <use x="63.623047" xlink:href="#DejaVuSans-46"/>
       <use x="95.410156" xlink:href="#DejaVuSans-50"/>
      </g>
     </g>
    </g>
    <g id="ytick_4">
     <g id="line2d_9">
      <g>
       <use style="stroke:#000000;stroke-width:0.8;" x="42.1" xlink:href="#m814da730c7" y="191.102268"/>
      </g>
     </g>
     <g id="text_9">
      <!-- 0.4 -->
      <g transform="translate(19.196875 194.901487)scale(0.1 -0.1)">
       <use xlink:href="#DejaVuSans-48"/>
       <use x="63.623047" xlink:href="#DejaVuSans-46"/>
       <use x="95.410156" xlink:href="#DejaVuSans-52"/>
      </g>
     </g>
    </g>
    <g id="ytick_5">
     <g id="line2d_10">
      <g>
       <use style="stroke:#000000;stroke-width:0.8;" x="42.1" xlink:href="#m814da730c7" y="69.155875"/>
      </g>
     </g>
     <g id="text_10">
      <!-- 0.6 -->
      <defs>
       <path d="M 33.015625 40.375 
Q 26.375 40.375 22.484375 35.828125 
Q 18.609375 31.296875 18.609375 23.390625 
Q 18.609375 15.53125 22.484375 10.953125 
Q 26.375 6.390625 33.015625 6.390625 
Q 39.65625 6.390625 43.53125 10.953125 
Q 47.40625 15.53125 47.40625 23.390625 
Q 47.40625 31.296875 43.53125 35.828125 
Q 39.65625 40.375 33.015625 40.375 
z
M 52.59375 71.296875 
L 52.59375 62.3125 
Q 48.875 64.0625 45.09375 64.984375 
Q 41.3125 65.921875 37.59375 65.921875 
Q 27.828125 65.921875 22.671875 59.328125 
Q 17.53125 52.734375 16.796875 39.40625 
Q 19.671875 43.65625 24.015625 45.921875 
Q 28.375 48.1875 33.59375 48.1875 
Q 44.578125 48.1875 50.953125 41.515625 
Q 57.328125 34.859375 57.328125 23.390625 
Q 57.328125 12.15625 50.6875 5.359375 
Q 44.046875 -1.421875 33.015625 -1.421875 
Q 20.359375 -1.421875 13.671875 8.265625 
Q 6.984375 17.96875 6.984375 36.375 
Q 6.984375 53.65625 15.1875 63.9375 
Q 23.390625 74.21875 37.203125 74.21875 
Q 40.921875 74.21875 44.703125 73.484375 
Q 48.484375 72.75 52.59375 71.296875 
z
" id="DejaVuSans-54"/>
      </defs>
      <g transform="translate(19.196875 72.955093)scale(0.1 -0.1)">
       <use xlink:href="#DejaVuSans-48"/>
       <use x="63.623047" xlink:href="#DejaVuSans-46"/>
       <use x="95.410156" xlink:href="#DejaVuSans-54"/>
      </g>
     </g>
    </g>
   </g>
   <g id="patch_3">
    <path d="M 42.1 620.12 
L 42.1 25.44 
" style="fill:none;stroke:#000000;stroke-linecap:square;stroke-linejoin:miter;stroke-width:0.8;"/>
   </g>
   <g id="patch_4">
    <path d="M 408.892216 620.12 
L 408.892216 25.44 
" style="fill:none;stroke:#000000;stroke-linecap:square;stroke-linejoin:miter;stroke-width:0.8;"/>
   </g>
   <g id="patch_5">
    <path d="M 42.1 620.12 
L 408.892216 620.12 
" style="fill:none;stroke:#000000;stroke-linecap:square;stroke-linejoin:miter;stroke-width:0.8;"/>
   </g>
   <g id="patch_6">
    <path d="M 42.1 25.44 
L 408.892216 25.44 
" style="fill:none;stroke:#000000;stroke-linecap:square;stroke-linejoin:miter;stroke-width:0.8;"/>
   </g>
   <g id="text_11">
    <!-- C31/C17d-C31.1 -->
    <defs>
     <path d="M 64.40625 67.28125 
L 64.40625 56.890625 
Q 59.421875 61.53125 53.78125 63.8125 
Q 48.140625 66.109375 41.796875 66.109375 
Q 29.296875 66.109375 22.65625 58.46875 
Q 16.015625 50.828125 16.015625 36.375 
Q 16.015625 21.96875 22.65625 14.328125 
Q 29.296875 6.6875 41.796875 6.6875 
Q 48.140625 6.6875 53.78125 8.984375 
Q 59.421875 11.28125 64.40625 15.921875 
L 64.40625 5.609375 
Q 59.234375 2.09375 53.4375 0.328125 
Q 47.65625 -1.421875 41.21875 -1.421875 
Q 24.65625 -1.421875 15.125 8.703125 
Q 5.609375 18.84375 5.609375 36.375 
Q 5.609375 53.953125 15.125 64.078125 
Q 24.65625 74.21875 41.21875 74.21875 
Q 47.75 74.21875 53.53125 72.484375 
Q 59.328125 70.75 64.40625 67.28125 
z
" id="DejaVuSans-67"/>
     <path d="M 40.578125 39.3125 
Q 47.65625 37.796875 51.625 33 
Q 55.609375 28.21875 55.609375 21.1875 
Q 55.609375 10.40625 48.1875 4.484375 
Q 40.765625 -1.421875 27.09375 -1.421875 
Q 22.515625 -1.421875 17.65625 -0.515625 
Q 12.796875 0.390625 7.625 2.203125 
L 7.625 11.71875 
Q 11.71875 9.328125 16.59375 8.109375 
Q 21.484375 6.890625 26.8125 6.890625 
Q 36.078125 6.890625 40.9375 10.546875 
Q 45.796875 14.203125 45.796875 21.1875 
Q 45.796875 27.640625 41.28125 31.265625 
Q 36.765625 34.90625 28.71875 34.90625 
L 20.21875 34.90625 
L 20.21875 43.015625 
L 29.109375 43.015625 
Q 36.375 43.015625 40.234375 45.921875 
Q 44.09375 48.828125 44.09375 54.296875 
Q 44.09375 59.90625 40.109375 62.90625 
Q 36.140625 65.921875 28.71875 65.921875 
Q 24.65625 65.921875 20.015625 65.03125 
Q 15.375 64.15625 9.8125 62.3125 
L 9.8125 71.09375 
Q 15.4375 72.65625 20.34375 73.4375 
Q 25.25 74.21875 29.59375 74.21875 
Q 40.828125 74.21875 47.359375 69.109375 
Q 53.90625 64.015625 53.90625 55.328125 
Q 53.90625 49.265625 50.4375 45.09375 
Q 46.96875 40.921875 40.578125 39.3125 
z
" id="DejaVuSans-51"/>
     <path d="M 12.40625 8.296875 
L 28.515625 8.296875 
L 28.515625 63.921875 
L 10.984375 60.40625 
L 10.984375 69.390625 
L 28.421875 72.90625 
L 38.28125 72.90625 
L 38.28125 8.296875 
L 54.390625 8.296875 
L 54.390625 0 
L 12.40625 0 
z
" id="DejaVuSans-49"/>
     <path d="M 25.390625 72.90625 
L 33.6875 72.90625 
L 8.296875 -9.28125 
L 0 -9.28125 
z
" id="DejaVuSans-47"/>
     <path d="M 8.203125 72.90625 
L 55.078125 72.90625 
L 55.078125 68.703125 
L 28.609375 0 
L 18.3125 0 
L 43.21875 64.59375 
L 8.203125 64.59375 
z
" id="DejaVuSans-55"/>
     <path d="M 45.40625 46.390625 
L 45.40625 75.984375 
L 54.390625 75.984375 
L 54.390625 0 
L 45.40625 0 
L 45.40625 8.203125 
Q 42.578125 3.328125 38.25 0.953125 
Q 33.9375 -1.421875 27.875 -1.421875 
Q 17.96875 -1.421875 11.734375 6.484375 
Q 5.515625 14.40625 5.515625 27.296875 
Q 5.515625 40.1875 11.734375 48.09375 
Q 17.96875 56 27.875 56 
Q 33.9375 56 38.25 53.625 
Q 42.578125 51.265625 45.40625 46.390625 
z
M 14.796875 27.296875 
Q 14.796875 17.390625 18.875 11.75 
Q 22.953125 6.109375 30.078125 6.109375 
Q 37.203125 6.109375 41.296875 11.75 
Q 45.40625 17.390625 45.40625 27.296875 
Q 45.40625 37.203125 41.296875 42.84375 
Q 37.203125 48.484375 30.078125 48.484375 
Q 22.953125 48.484375 18.875 42.84375 
Q 14.796875 37.203125 14.796875 27.296875 
z
" id="DejaVuSans-100"/>
     <path d="M 4.890625 31.390625 
L 31.203125 31.390625 
L 31.203125 23.390625 
L 4.890625 23.390625 
z
" id="DejaVuSans-45"/>
    </defs>
    <g transform="translate(69.951303 502.094938)scale(0.1 -0.1)">
     <use xlink:href="#DejaVuSans-67"/>
     <use x="69.824219" xlink:href="#DejaVuSans-51"/>
     <use x="133.447266" xlink:href="#DejaVuSans-49"/>
     <use x="197.070312" xlink:href="#DejaVuSans-47"/>
     <use x="230.761719" xlink:href="#DejaVuSans-67"/>
     <use x="300.585938" xlink:href="#DejaVuSans-49"/>
     <use x="364.208984" xlink:href="#DejaVuSans-55"/>
     <use x="427.832031" xlink:href="#DejaVuSans-100"/>
     <use x="491.308594" xlink:href="#DejaVuSans-45"/>
     <use x="527.392578" xlink:href="#DejaVuSans-67"/>
     <use x="597.216797" xlink:href="#DejaVuSans-51"/>
     <use x="660.839844" xlink:href="#DejaVuSans-49"/>
     <use x="724.462891" xlink:href="#DejaVuSans-46"/>
     <use x="756.25" xlink:href="#DejaVuSans-49"/>
    </g>
   </g>
   <g id="text_12">
    <!-- C31/C17d -->
    <g transform="translate(66.070127 504.780104)scale(0.1 -0.1)">
     <use xlink:href="#DejaVuSans-67"/>
     <use x="69.824219" xlink:href="#DejaVuSans-51"/>
     <use x="133.447266" xlink:href="#DejaVuSans-49"/>
     <use x="197.070312" xlink:href="#DejaVuSans-47"/>
     <use x="230.761719" xlink:href="#DejaVuSans-67"/>
     <use x="300.585938" xlink:href="#DejaVuSans-49"/>
     <use x="364.208984" xlink:href="#DejaVuSans-55"/>
     <use x="427.832031" xlink:href="#DejaVuSans-100"/>
    </g>
   </g>
   <g id="text_13">
    <!-- C1d/C31 -->
    <g transform="translate(149.756961 593.089091)scale(0.1 -0.1)">
     <use xlink:href="#DejaVuSans-67"/>
     <use x="69.824219" xlink:href="#DejaVuSans-49"/>
     <use x="133.447266" xlink:href="#DejaVuSans-100"/>
     <use x="196.923828" xlink:href="#DejaVuSans-47"/>
     <use x="230.615234" xlink:href="#DejaVuSans-67"/>
     <use x="300.439453" xlink:href="#DejaVuSans-51"/>
     <use x="364.0625" xlink:href="#DejaVuSans-49"/>
    </g>
   </g>
   <g id="text_14">
    <!-- C31/C17d-C21-C31.9-C31h-C31i-C21ac -->
    <defs>
     <path d="M 10.984375 1.515625 
L 10.984375 10.5 
Q 14.703125 8.734375 18.5 7.8125 
Q 22.3125 6.890625 25.984375 6.890625 
Q 35.75 6.890625 40.890625 13.453125 
Q 46.046875 20.015625 46.78125 33.40625 
Q 43.953125 29.203125 39.59375 26.953125 
Q 35.25 24.703125 29.984375 24.703125 
Q 19.046875 24.703125 12.671875 31.3125 
Q 6.296875 37.9375 6.296875 49.421875 
Q 6.296875 60.640625 12.9375 67.421875 
Q 19.578125 74.21875 30.609375 74.21875 
Q 43.265625 74.21875 49.921875 64.515625 
Q 56.59375 54.828125 56.59375 36.375 
Q 56.59375 19.140625 48.40625 8.859375 
Q 40.234375 -1.421875 26.421875 -1.421875 
Q 22.703125 -1.421875 18.890625 -0.6875 
Q 15.09375 0.046875 10.984375 1.515625 
z
M 30.609375 32.421875 
Q 37.25 32.421875 41.125 36.953125 
Q 45.015625 41.5 45.015625 49.421875 
Q 45.015625 57.28125 41.125 61.84375 
Q 37.25 66.40625 30.609375 66.40625 
Q 23.96875 66.40625 20.09375 61.84375 
Q 16.21875 57.28125 16.21875 49.421875 
Q 16.21875 41.5 20.09375 36.953125 
Q 23.96875 32.421875 30.609375 32.421875 
z
" id="DejaVuSans-57"/>
     <path d="M 54.890625 33.015625 
L 54.890625 0 
L 45.90625 0 
L 45.90625 32.71875 
Q 45.90625 40.484375 42.875 44.328125 
Q 39.84375 48.1875 33.796875 48.1875 
Q 26.515625 48.1875 22.3125 43.546875 
Q 18.109375 38.921875 18.109375 30.90625 
L 18.109375 0 
L 9.078125 0 
L 9.078125 75.984375 
L 18.109375 75.984375 
L 18.109375 46.1875 
Q 21.34375 51.125 25.703125 53.5625 
Q 30.078125 56 35.796875 56 
Q 45.21875 56 50.046875 50.171875 
Q 54.890625 44.34375 54.890625 33.015625 
z
" id="DejaVuSans-104"/>
     <path d="M 9.421875 54.6875 
L 18.40625 54.6875 
L 18.40625 0 
L 9.421875 0 
z
M 9.421875 75.984375 
L 18.40625 75.984375 
L 18.40625 64.59375 
L 9.421875 64.59375 
z
" id="DejaVuSans-105"/>
     <path d="M 34.28125 27.484375 
Q 23.390625 27.484375 19.1875 25 
Q 14.984375 22.515625 14.984375 16.5 
Q 14.984375 11.71875 18.140625 8.90625 
Q 21.296875 6.109375 26.703125 6.109375 
Q 34.1875 6.109375 38.703125 11.40625 
Q 43.21875 16.703125 43.21875 25.484375 
L 43.21875 27.484375 
z
M 52.203125 31.203125 
L 52.203125 0 
L 43.21875 0 
L 43.21875 8.296875 
Q 40.140625 3.328125 35.546875 0.953125 
Q 30.953125 -1.421875 24.3125 -1.421875 
Q 15.921875 -1.421875 10.953125 3.296875 
Q 6 8.015625 6 15.921875 
Q 6 25.140625 12.171875 29.828125 
Q 18.359375 34.515625 30.609375 34.515625 
L 43.21875 34.515625 
L 43.21875 35.40625 
Q 43.21875 41.609375 39.140625 45 
Q 35.0625 48.390625 27.6875 48.390625 
Q 23 48.390625 18.546875 47.265625 
Q 14.109375 46.140625 10.015625 43.890625 
L 10.015625 52.203125 
Q 14.9375 54.109375 19.578125 55.046875 
Q 24.21875 56 28.609375 56 
Q 40.484375 56 46.34375 49.84375 
Q 52.203125 43.703125 52.203125 31.203125 
z
" id="DejaVuSans-97"/>
     <path d="M 48.78125 52.59375 
L 48.78125 44.1875 
Q 44.96875 46.296875 41.140625 47.34375 
Q 37.3125 48.390625 33.40625 48.390625 
Q 24.65625 48.390625 19.8125 42.84375 
Q 14.984375 37.3125 14.984375 27.296875 
Q 14.984375 17.28125 19.8125 11.734375 
Q 24.65625 6.203125 33.40625 6.203125 
Q 37.3125 6.203125 41.140625 7.25 
Q 44.96875 8.296875 48.78125 10.40625 
L 48.78125 2.09375 
Q 45.015625 0.34375 40.984375 -0.53125 
Q 36.96875 -1.421875 32.421875 -1.421875 
Q 20.0625 -1.421875 12.78125 6.34375 
Q 5.515625 14.109375 5.515625 27.296875 
Q 5.515625 40.671875 12.859375 48.328125 
Q 20.21875 56 33.015625 56 
Q 37.15625 56 41.109375 55.140625 
Q 45.0625 54.296875 48.78125 52.59375 
z
" id="DejaVuSans-99"/>
    </defs>
    <g transform="translate(62.103906 503.166642)scale(0.1 -0.1)">
     <use xlink:href="#DejaVuSans-67"/>
     <use x="69.824219" xlink:href="#DejaVuSans-51"/>
     <use x="133.447266" xlink:href="#DejaVuSans-49"/>
     <use x="197.070312" xlink:href="#DejaVuSans-47"/>
     <use x="230.761719" xlink:href="#DejaVuSans-67"/>
     <use x="300.585938" xlink:href="#DejaVuSans-49"/>
     <use x="364.208984" xlink:href="#DejaVuSans-55"/>
     <use x="427.832031" xlink:href="#DejaVuSans-100"/>
     <use x="491.308594" xlink:href="#DejaVuSans-45"/>
     <use x="527.392578" xlink:href="#DejaVuSans-67"/>
     <use x="597.216797" xlink:href="#DejaVuSans-50"/>
     <use x="660.839844" xlink:href="#DejaVuSans-49"/>
     <use x="724.462891" xlink:href="#DejaVuSans-45"/>
     <use x="760.546875" xlink:href="#DejaVuSans-67"/>
     <use x="830.371094" xlink:href="#DejaVuSans-51"/>
     <use x="893.994141" xlink:href="#DejaVuSans-49"/>
     <use x="957.617188" xlink:href="#DejaVuSans-46"/>
     <use x="989.404297" xlink:href="#DejaVuSans-57"/>
     <use x="1053.027344" xlink:href="#DejaVuSans-45"/>
     <use x="1089.111328" xlink:href="#DejaVuSans-67"/>
     <use x="1158.935547" xlink:href="#DejaVuSans-51"/>
     <use x="1222.558594" xlink:href="#DejaVuSans-49"/>
     <use x="1286.181641" xlink:href="#DejaVuSans-104"/>
     <use x="1349.560547" xlink:href="#DejaVuSans-45"/>
     <use x="1385.644531" xlink:href="#DejaVuSans-67"/>
     <use x="1455.46875" xlink:href="#DejaVuSans-51"/>
     <use x="1519.091797" xlink:href="#DejaVuSans-49"/>
     <use x="1582.714844" xlink:href="#DejaVuSans-105"/>
     <use x="1610.498047" xlink:href="#DejaVuSans-45"/>
     <use x="1646.582031" xlink:href="#DejaVuSans-67"/>
     <use x="1716.40625" xlink:href="#DejaVuSans-50"/>
     <use x="1780.029297" xlink:href="#DejaVuSans-49"/>
     <use x="1843.652344" xlink:href="#DejaVuSans-97"/>
     <use x="1904.931641" xlink:href="#DejaVuSans-99"/>
    </g>
   </g>
   <g id="text_15">
    <!-- C1/C3-C1c-C1b-C1w-C42.2 -->
    <defs>
     <path d="M 48.6875 27.296875 
Q 48.6875 37.203125 44.609375 42.84375 
Q 40.53125 48.484375 33.40625 48.484375 
Q 26.265625 48.484375 22.1875 42.84375 
Q 18.109375 37.203125 18.109375 27.296875 
Q 18.109375 17.390625 22.1875 11.75 
Q 26.265625 6.109375 33.40625 6.109375 
Q 40.53125 6.109375 44.609375 11.75 
Q 48.6875 17.390625 48.6875 27.296875 
z
M 18.109375 46.390625 
Q 20.953125 51.265625 25.265625 53.625 
Q 29.59375 56 35.59375 56 
Q 45.5625 56 51.78125 48.09375 
Q 58.015625 40.1875 58.015625 27.296875 
Q 58.015625 14.40625 51.78125 6.484375 
Q 45.5625 -1.421875 35.59375 -1.421875 
Q 29.59375 -1.421875 25.265625 0.953125 
Q 20.953125 3.328125 18.109375 8.203125 
L 18.109375 0 
L 9.078125 0 
L 9.078125 75.984375 
L 18.109375 75.984375 
z
" id="DejaVuSans-98"/>
     <path d="M 4.203125 54.6875 
L 13.1875 54.6875 
L 24.421875 12.015625 
L 35.59375 54.6875 
L 46.1875 54.6875 
L 57.421875 12.015625 
L 68.609375 54.6875 
L 77.59375 54.6875 
L 63.28125 0 
L 52.6875 0 
L 40.921875 44.828125 
L 29.109375 0 
L 18.5 0 
z
" id="DejaVuSans-119"/>
    </defs>
    <g transform="translate(383.72353 511.824805)scale(0.1 -0.1)">
     <use xlink:href="#DejaVuSans-67"/>
     <use x="69.824219" xlink:href="#DejaVuSans-49"/>
     <use x="133.447266" xlink:href="#DejaVuSans-47"/>
     <use x="167.138672" xlink:href="#DejaVuSans-67"/>
     <use x="236.962891" xlink:href="#DejaVuSans-51"/>
     <use x="300.585938" xlink:href="#DejaVuSans-45"/>
     <use x="336.669922" xlink:href="#DejaVuSans-67"/>
     <use x="406.494141" xlink:href="#DejaVuSans-49"/>
     <use x="470.117188" xlink:href="#DejaVuSans-99"/>
     <use x="525.097656" xlink:href="#DejaVuSans-45"/>
     <use x="561.181641" xlink:href="#DejaVuSans-67"/>
     <use x="631.005859" xlink:href="#DejaVuSans-49"/>
     <use x="694.628906" xlink:href="#DejaVuSans-98"/>
     <use x="758.105469" xlink:href="#DejaVuSans-45"/>
     <use x="794.189453" xlink:href="#DejaVuSans-67"/>
     <use x="864.013672" xlink:href="#DejaVuSans-49"/>
     <use x="927.636719" xlink:href="#DejaVuSans-119"/>
     <use x="1009.423828" xlink:href="#DejaVuSans-45"/>
     <use x="1045.507812" xlink:href="#DejaVuSans-67"/>
     <use x="1115.332031" xlink:href="#DejaVuSans-52"/>
     <use x="1178.955078" xlink:href="#DejaVuSans-50"/>
     <use x="1242.578125" xlink:href="#DejaVuSans-46"/>
     <use x="1274.365234" xlink:href="#DejaVuSans-50"/>
    </g>
   </g>
   <g id="text_16">
    <!-- C15-C15n -->
    <defs>
     <path d="M 10.796875 72.90625 
L 49.515625 72.90625 
L 49.515625 64.59375 
L 19.828125 64.59375 
L 19.828125 46.734375 
Q 21.96875 47.46875 24.109375 47.828125 
Q 26.265625 48.1875 28.421875 48.1875 
Q 40.625 48.1875 47.75 41.5 
Q 54.890625 34.8125 54.890625 23.390625 
Q 54.890625 11.625 47.5625 5.09375 
Q 40.234375 -1.421875 26.90625 -1.421875 
Q 22.3125 -1.421875 17.546875 -0.640625 
Q 12.796875 0.140625 7.71875 1.703125 
L 7.71875 11.625 
Q 12.109375 9.234375 16.796875 8.0625 
Q 21.484375 6.890625 26.703125 6.890625 
Q 35.15625 6.890625 40.078125 11.328125 
Q 45.015625 15.765625 45.015625 23.390625 
Q 45.015625 31 40.078125 35.4375 
Q 35.15625 39.890625 26.703125 39.890625 
Q 22.75 39.890625 18.8125 39.015625 
Q 14.890625 38.140625 10.796875 36.28125 
z
" id="DejaVuSans-53"/>
     <path d="M 54.890625 33.015625 
L 54.890625 0 
L 45.90625 0 
L 45.90625 32.71875 
Q 45.90625 40.484375 42.875 44.328125 
Q 39.84375 48.1875 33.796875 48.1875 
Q 26.515625 48.1875 22.3125 43.546875 
Q 18.109375 38.921875 18.109375 30.90625 
L 18.109375 0 
L 9.078125 0 
L 9.078125 54.6875 
L 18.109375 54.6875 
L 18.109375 46.1875 
Q 21.34375 51.125 25.703125 53.5625 
Q 30.078125 56 35.796875 56 
Q 45.21875 56 50.046875 50.171875 
Q 54.890625 44.34375 54.890625 33.015625 
z
" id="DejaVuSans-110"/>
    </defs>
    <g transform="translate(260.258702 58.405494)scale(0.1 -0.1)">
     <use xlink:href="#DejaVuSans-67"/>
     <use x="69.824219" xlink:href="#DejaVuSans-49"/>
     <use x="133.447266" xlink:href="#DejaVuSans-53"/>
     <use x="197.070312" xlink:href="#DejaVuSans-45"/>
     <use x="233.154297" xlink:href="#DejaVuSans-67"/>
     <use x="302.978516" xlink:href="#DejaVuSans-49"/>
     <use x="366.601562" xlink:href="#DejaVuSans-53"/>
     <use x="430.224609" xlink:href="#DejaVuSans-110"/>
    </g>
   </g>
   <g id="text_17">
    <!-- C15-C15ci-C15n-C15cj-C15cc-C15cl-C15l -->
    <defs>
     <path d="M 9.421875 54.6875 
L 18.40625 54.6875 
L 18.40625 -0.984375 
Q 18.40625 -11.421875 14.421875 -16.109375 
Q 10.453125 -20.796875 1.609375 -20.796875 
L -1.8125 -20.796875 
L -1.8125 -13.1875 
L 0.59375 -13.1875 
Q 5.71875 -13.1875 7.5625 -10.8125 
Q 9.421875 -8.453125 9.421875 -0.984375 
z
M 9.421875 75.984375 
L 18.40625 75.984375 
L 18.40625 64.59375 
L 9.421875 64.59375 
z
" id="DejaVuSans-106"/>
     <path d="M 9.421875 75.984375 
L 18.40625 75.984375 
L 18.40625 0 
L 9.421875 0 
z
" id="DejaVuSans-108"/>
    </defs>
    <g transform="translate(259.628013 52.470909)scale(0.1 -0.1)">
     <use xlink:href="#DejaVuSans-67"/>
     <use x="69.824219" xlink:href="#DejaVuSans-49"/>
     <use x="133.447266" xlink:href="#DejaVuSans-53"/>
     <use x="197.070312" xlink:href="#DejaVuSans-45"/>
     <use x="233.154297" xlink:href="#DejaVuSans-67"/>
     <use x="302.978516" xlink:href="#DejaVuSans-49"/>
     <use x="366.601562" xlink:href="#DejaVuSans-53"/>
     <use x="430.224609" xlink:href="#DejaVuSans-99"/>
     <use x="485.205078" xlink:href="#DejaVuSans-105"/>
     <use x="512.988281" xlink:href="#DejaVuSans-45"/>
     <use x="549.072266" xlink:href="#DejaVuSans-67"/>
     <use x="618.896484" xlink:href="#DejaVuSans-49"/>
     <use x="682.519531" xlink:href="#DejaVuSans-53"/>
     <use x="746.142578" xlink:href="#DejaVuSans-110"/>
     <use x="809.521484" xlink:href="#DejaVuSans-45"/>
     <use x="845.605469" xlink:href="#DejaVuSans-67"/>
     <use x="915.429688" xlink:href="#DejaVuSans-49"/>
     <use x="979.052734" xlink:href="#DejaVuSans-53"/>
     <use x="1042.675781" xlink:href="#DejaVuSans-99"/>
     <use x="1097.65625" xlink:href="#DejaVuSans-106"/>
     <use x="1125.439453" xlink:href="#DejaVuSans-45"/>
     <use x="1161.523438" xlink:href="#DejaVuSans-67"/>
     <use x="1231.347656" xlink:href="#DejaVuSans-49"/>
     <use x="1294.970703" xlink:href="#DejaVuSans-53"/>
     <use x="1358.59375" xlink:href="#DejaVuSans-99"/>
     <use x="1413.574219" xlink:href="#DejaVuSans-99"/>
     <use x="1468.554688" xlink:href="#DejaVuSans-45"/>
     <use x="1504.638672" xlink:href="#DejaVuSans-67"/>
     <use x="1574.462891" xlink:href="#DejaVuSans-49"/>
     <use x="1638.085938" xlink:href="#DejaVuSans-53"/>
     <use x="1701.708984" xlink:href="#DejaVuSans-99"/>
     <use x="1756.689453" xlink:href="#DejaVuSans-108"/>
     <use x="1784.472656" xlink:href="#DejaVuSans-45"/>
     <use x="1820.556641" xlink:href="#DejaVuSans-67"/>
     <use x="1890.380859" xlink:href="#DejaVuSans-49"/>
     <use x="1954.003906" xlink:href="#DejaVuSans-53"/>
     <use x="2017.626953" xlink:href="#DejaVuSans-108"/>
    </g>
   </g>
   <g id="text_18">
    <!-- C15h/C15 -->
    <g transform="translate(260.847927 98.277553)scale(0.1 -0.1)">
     <use xlink:href="#DejaVuSans-67"/>
     <use x="69.824219" xlink:href="#DejaVuSans-49"/>
     <use x="133.447266" xlink:href="#DejaVuSans-53"/>
     <use x="197.070312" xlink:href="#DejaVuSans-104"/>
     <use x="260.449219" xlink:href="#DejaVuSans-47"/>
     <use x="294.140625" xlink:href="#DejaVuSans-67"/>
     <use x="363.964844" xlink:href="#DejaVuSans-49"/>
     <use x="427.587891" xlink:href="#DejaVuSans-53"/>
    </g>
   </g>
   <g id="text_19">
    <!-- C27-C3-C21-C27a -->
    <g transform="translate(258.575708 384.062647)scale(0.1 -0.1)">
     <use xlink:href="#DejaVuSans-67"/>
     <use x="69.824219" xlink:href="#DejaVuSans-50"/>
     <use x="133.447266" xlink:href="#DejaVuSans-55"/>
     <use x="197.070312" xlink:href="#DejaVuSans-45"/>
     <use x="233.154297" xlink:href="#DejaVuSans-67"/>
     <use x="302.978516" xlink:href="#DejaVuSans-51"/>
     <use x="366.601562" xlink:href="#DejaVuSans-45"/>
     <use x="402.685547" xlink:href="#DejaVuSans-67"/>
     <use x="472.509766" xlink:href="#DejaVuSans-50"/>
     <use x="536.132812" xlink:href="#DejaVuSans-49"/>
     <use x="599.755859" xlink:href="#DejaVuSans-45"/>
     <use x="635.839844" xlink:href="#DejaVuSans-67"/>
     <use x="705.664062" xlink:href="#DejaVuSans-50"/>
     <use x="769.287109" xlink:href="#DejaVuSans-55"/>
     <use x="832.910156" xlink:href="#DejaVuSans-97"/>
    </g>
   </g>
   <g id="text_20">
    <!-- C1/C1c-C1b-C1al-C72k -->
    <defs>
     <path d="M 9.078125 75.984375 
L 18.109375 75.984375 
L 18.109375 31.109375 
L 44.921875 54.6875 
L 56.390625 54.6875 
L 27.390625 29.109375 
L 57.625 0 
L 45.90625 0 
L 18.109375 26.703125 
L 18.109375 0 
L 9.078125 0 
z
" id="DejaVuSans-107"/>
    </defs>
    <g transform="translate(373.5725 502.379263)scale(0.1 -0.1)">
     <use xlink:href="#DejaVuSans-67"/>
     <use x="69.824219" xlink:href="#DejaVuSans-49"/>
     <use x="133.447266" xlink:href="#DejaVuSans-47"/>
     <use x="167.138672" xlink:href="#DejaVuSans-67"/>
     <use x="236.962891" xlink:href="#DejaVuSans-49"/>
     <use x="300.585938" xlink:href="#DejaVuSans-99"/>
     <use x="355.566406" xlink:href="#DejaVuSans-45"/>
     <use x="391.650391" xlink:href="#DejaVuSans-67"/>
     <use x="461.474609" xlink:href="#DejaVuSans-49"/>
     <use x="525.097656" xlink:href="#DejaVuSans-98"/>
     <use x="588.574219" xlink:href="#DejaVuSans-45"/>
     <use x="624.658203" xlink:href="#DejaVuSans-67"/>
     <use x="694.482422" xlink:href="#DejaVuSans-49"/>
     <use x="758.105469" xlink:href="#DejaVuSans-97"/>
     <use x="819.384766" xlink:href="#DejaVuSans-108"/>
     <use x="847.167969" xlink:href="#DejaVuSans-45"/>
     <use x="883.251953" xlink:href="#DejaVuSans-67"/>
     <use x="953.076172" xlink:href="#DejaVuSans-55"/>
     <use x="1016.699219" xlink:href="#DejaVuSans-50"/>
     <use x="1080.322266" xlink:href="#DejaVuSans-107"/>
    </g>
   </g>
   <g id="text_21">
    <!-- C1/C3-C1c-C1b-C72k-C42.2 -->
    <g transform="translate(381.204231 509.498979)scale(0.1 -0.1)">
     <use xlink:href="#DejaVuSans-67"/>
     <use x="69.824219" xlink:href="#DejaVuSans-49"/>
     <use x="133.447266" xlink:href="#DejaVuSans-47"/>
     <use x="167.138672" xlink:href="#DejaVuSans-67"/>
     <use x="236.962891" xlink:href="#DejaVuSans-51"/>
     <use x="300.585938" xlink:href="#DejaVuSans-45"/>
     <use x="336.669922" xlink:href="#DejaVuSans-67"/>
     <use x="406.494141" xlink:href="#DejaVuSans-49"/>
     <use x="470.117188" xlink:href="#DejaVuSans-99"/>
     <use x="525.097656" xlink:href="#DejaVuSans-45"/>
     <use x="561.181641" xlink:href="#DejaVuSans-67"/>
     <use x="631.005859" xlink:href="#DejaVuSans-49"/>
     <use x="694.628906" xlink:href="#DejaVuSans-98"/>
     <use x="758.105469" xlink:href="#DejaVuSans-45"/>
     <use x="794.189453" xlink:href="#DejaVuSans-67"/>
     <use x="864.013672" xlink:href="#DejaVuSans-55"/>
     <use x="927.636719" xlink:href="#DejaVuSans-50"/>
     <use x="991.259766" xlink:href="#DejaVuSans-107"/>
     <use x="1049.169922" xlink:href="#DejaVuSans-45"/>
     <use x="1085.253906" xlink:href="#DejaVuSans-67"/>
     <use x="1155.078125" xlink:href="#DejaVuSans-52"/>
     <use x="1218.701172" xlink:href="#DejaVuSans-50"/>
     <use x="1282.324219" xlink:href="#DejaVuSans-46"/>
     <use x="1314.111328" xlink:href="#DejaVuSans-50"/>
    </g>
   </g>
   <g id="text_22">
    <!-- C15-C15ci-C15cj-C15cm-C15ch-C15n-C15ck -->
    <defs>
     <path d="M 52 44.1875 
Q 55.375 50.25 60.0625 53.125 
Q 64.75 56 71.09375 56 
Q 79.640625 56 84.28125 50.015625 
Q 88.921875 44.046875 88.921875 33.015625 
L 88.921875 0 
L 79.890625 0 
L 79.890625 32.71875 
Q 79.890625 40.578125 77.09375 44.375 
Q 74.3125 48.1875 68.609375 48.1875 
Q 61.625 48.1875 57.5625 43.546875 
Q 53.515625 38.921875 53.515625 30.90625 
L 53.515625 0 
L 44.484375 0 
L 44.484375 32.71875 
Q 44.484375 40.625 41.703125 44.40625 
Q 38.921875 48.1875 33.109375 48.1875 
Q 26.21875 48.1875 22.15625 43.53125 
Q 18.109375 38.875 18.109375 30.90625 
L 18.109375 0 
L 9.078125 0 
L 9.078125 54.6875 
L 18.109375 54.6875 
L 18.109375 46.1875 
Q 21.1875 51.21875 25.484375 53.609375 
Q 29.78125 56 35.6875 56 
Q 41.65625 56 45.828125 52.96875 
Q 50 49.953125 52 44.1875 
z
" id="DejaVuSans-109"/>
    </defs>
    <g transform="translate(260.353633 55.292711)scale(0.1 -0.1)">
     <use xlink:href="#DejaVuSans-67"/>
     <use x="69.824219" xlink:href="#DejaVuSans-49"/>
     <use x="133.447266" xlink:href="#DejaVuSans-53"/>
     <use x="197.070312" xlink:href="#DejaVuSans-45"/>
     <use x="233.154297" xlink:href="#DejaVuSans-67"/>
     <use x="302.978516" xlink:href="#DejaVuSans-49"/>
     <use x="366.601562" xlink:href="#DejaVuSans-53"/>
     <use x="430.224609" xlink:href="#DejaVuSans-99"/>
     <use x="485.205078" xlink:href="#DejaVuSans-105"/>
     <use x="512.988281" xlink:href="#DejaVuSans-45"/>
     <use x="549.072266" xlink:href="#DejaVuSans-67"/>
     <use x="618.896484" xlink:href="#DejaVuSans-49"/>
     <use x="682.519531" xlink:href="#DejaVuSans-53"/>
     <use x="746.142578" xlink:href="#DejaVuSans-99"/>
     <use x="801.123047" xlink:href="#DejaVuSans-106"/>
     <use x="828.90625" xlink:href="#DejaVuSans-45"/>
     <use x="864.990234" xlink:href="#DejaVuSans-67"/>
     <use x="934.814453" xlink:href="#DejaVuSans-49"/>
     <use x="998.4375" xlink:href="#DejaVuSans-53"/>
     <use x="1062.060547" xlink:href="#DejaVuSans-99"/>
     <use x="1117.041016" xlink:href="#DejaVuSans-109"/>
     <use x="1214.453125" xlink:href="#DejaVuSans-45"/>
     <use x="1250.537109" xlink:href="#DejaVuSans-67"/>
     <use x="1320.361328" xlink:href="#DejaVuSans-49"/>
     <use x="1383.984375" xlink:href="#DejaVuSans-53"/>
     <use x="1447.607422" xlink:href="#DejaVuSans-99"/>
     <use x="1502.587891" xlink:href="#DejaVuSans-104"/>
     <use x="1565.966797" xlink:href="#DejaVuSans-45"/>
     <use x="1602.050781" xlink:href="#DejaVuSans-67"/>
     <use x="1671.875" xlink:href="#DejaVuSans-49"/>
     <use x="1735.498047" xlink:href="#DejaVuSans-53"/>
     <use x="1799.121094" xlink:href="#DejaVuSans-110"/>
     <use x="1862.5" xlink:href="#DejaVuSans-45"/>
     <use x="1898.583984" xlink:href="#DejaVuSans-67"/>
     <use x="1968.408203" xlink:href="#DejaVuSans-49"/>
     <use x="2032.03125" xlink:href="#DejaVuSans-53"/>
     <use x="2095.654297" xlink:href="#DejaVuSans-99"/>
     <use x="2150.634766" xlink:href="#DejaVuSans-107"/>
    </g>
   </g>
   <g id="text_23">
    <!-- C31/C17d-C21-C21ac-C31a-C17e-C31.9-C17f -->
    <defs>
     <path d="M 56.203125 29.59375 
L 56.203125 25.203125 
L 14.890625 25.203125 
Q 15.484375 15.921875 20.484375 11.0625 
Q 25.484375 6.203125 34.421875 6.203125 
Q 39.59375 6.203125 44.453125 7.46875 
Q 49.3125 8.734375 54.109375 11.28125 
L 54.109375 2.78125 
Q 49.265625 0.734375 44.1875 -0.34375 
Q 39.109375 -1.421875 33.890625 -1.421875 
Q 20.796875 -1.421875 13.15625 6.1875 
Q 5.515625 13.8125 5.515625 26.8125 
Q 5.515625 40.234375 12.765625 48.109375 
Q 20.015625 56 32.328125 56 
Q 43.359375 56 49.78125 48.890625 
Q 56.203125 41.796875 56.203125 29.59375 
z
M 47.21875 32.234375 
Q 47.125 39.59375 43.09375 43.984375 
Q 39.0625 48.390625 32.421875 48.390625 
Q 24.90625 48.390625 20.390625 44.140625 
Q 15.875 39.890625 15.1875 32.171875 
z
" id="DejaVuSans-101"/>
     <path d="M 37.109375 75.984375 
L 37.109375 68.5 
L 28.515625 68.5 
Q 23.6875 68.5 21.796875 66.546875 
Q 19.921875 64.59375 19.921875 59.515625 
L 19.921875 54.6875 
L 34.71875 54.6875 
L 34.71875 47.703125 
L 19.921875 47.703125 
L 19.921875 0 
L 10.890625 0 
L 10.890625 47.703125 
L 2.296875 47.703125 
L 2.296875 54.6875 
L 10.890625 54.6875 
L 10.890625 58.5 
Q 10.890625 67.625 15.140625 71.796875 
Q 19.390625 75.984375 28.609375 75.984375 
z
" id="DejaVuSans-102"/>
    </defs>
    <g transform="translate(63.680004 499.408862)scale(0.1 -0.1)">
     <use xlink:href="#DejaVuSans-67"/>
     <use x="69.824219" xlink:href="#DejaVuSans-51"/>
     <use x="133.447266" xlink:href="#DejaVuSans-49"/>
     <use x="197.070312" xlink:href="#DejaVuSans-47"/>
     <use x="230.761719" xlink:href="#DejaVuSans-67"/>
     <use x="300.585938" xlink:href="#DejaVuSans-49"/>
     <use x="364.208984" xlink:href="#DejaVuSans-55"/>
     <use x="427.832031" xlink:href="#DejaVuSans-100"/>
     <use x="491.308594" xlink:href="#DejaVuSans-45"/>
     <use x="527.392578" xlink:href="#DejaVuSans-67"/>
     <use x="597.216797" xlink:href="#DejaVuSans-50"/>
     <use x="660.839844" xlink:href="#DejaVuSans-49"/>
     <use x="724.462891" xlink:href="#DejaVuSans-45"/>
     <use x="760.546875" xlink:href="#DejaVuSans-67"/>
     <use x="830.371094" xlink:href="#DejaVuSans-50"/>
     <use x="893.994141" xlink:href="#DejaVuSans-49"/>
     <use x="957.617188" xlink:href="#DejaVuSans-97"/>
     <use x="1018.896484" xlink:href="#DejaVuSans-99"/>
     <use x="1073.876953" xlink:href="#DejaVuSans-45"/>
     <use x="1109.960938" xlink:href="#DejaVuSans-67"/>
     <use x="1179.785156" xlink:href="#DejaVuSans-51"/>
     <use x="1243.408203" xlink:href="#DejaVuSans-49"/>
     <use x="1307.03125" xlink:href="#DejaVuSans-97"/>
     <use x="1368.310547" xlink:href="#DejaVuSans-45"/>
     <use x="1404.394531" xlink:href="#DejaVuSans-67"/>
     <use x="1474.21875" xlink:href="#DejaVuSans-49"/>
     <use x="1537.841797" xlink:href="#DejaVuSans-55"/>
     <use x="1601.464844" xlink:href="#DejaVuSans-101"/>
     <use x="1662.988281" xlink:href="#DejaVuSans-45"/>
     <use x="1699.072266" xlink:href="#DejaVuSans-67"/>
     <use x="1768.896484" xlink:href="#DejaVuSans-51"/>
     <use x="1832.519531" xlink:href="#DejaVuSans-49"/>
     <use x="1896.142578" xlink:href="#DejaVuSans-46"/>
     <use x="1927.929688" xlink:href="#DejaVuSans-57"/>
     <use x="1991.552734" xlink:href="#DejaVuSans-45"/>
     <use x="2027.636719" xlink:href="#DejaVuSans-67"/>
     <use x="2097.460938" xlink:href="#DejaVuSans-49"/>
     <use x="2161.083984" xlink:href="#DejaVuSans-55"/>
     <use x="2224.707031" xlink:href="#DejaVuSans-102"/>
    </g>
   </g>
   <g id="text_24">
    <!-- C17d/C31-C21-C21ac-C17e-C17f-C31.9 -->
    <g transform="translate(69.31867 494.23399)scale(0.1 -0.1)">
     <use xlink:href="#DejaVuSans-67"/>
     <use x="69.824219" xlink:href="#DejaVuSans-49"/>
     <use x="133.447266" xlink:href="#DejaVuSans-55"/>
     <use x="197.070312" xlink:href="#DejaVuSans-100"/>
     <use x="260.546875" xlink:href="#DejaVuSans-47"/>
     <use x="294.238281" xlink:href="#DejaVuSans-67"/>
     <use x="364.0625" xlink:href="#DejaVuSans-51"/>
     <use x="427.685547" xlink:href="#DejaVuSans-49"/>
     <use x="491.308594" xlink:href="#DejaVuSans-45"/>
     <use x="527.392578" xlink:href="#DejaVuSans-67"/>
     <use x="597.216797" xlink:href="#DejaVuSans-50"/>
     <use x="660.839844" xlink:href="#DejaVuSans-49"/>
     <use x="724.462891" xlink:href="#DejaVuSans-45"/>
     <use x="760.546875" xlink:href="#DejaVuSans-67"/>
     <use x="830.371094" xlink:href="#DejaVuSans-50"/>
     <use x="893.994141" xlink:href="#DejaVuSans-49"/>
     <use x="957.617188" xlink:href="#DejaVuSans-97"/>
     <use x="1018.896484" xlink:href="#DejaVuSans-99"/>
     <use x="1073.876953" xlink:href="#DejaVuSans-45"/>
     <use x="1109.960938" xlink:href="#DejaVuSans-67"/>
     <use x="1179.785156" xlink:href="#DejaVuSans-49"/>
     <use x="1243.408203" xlink:href="#DejaVuSans-55"/>
     <use x="1307.03125" xlink:href="#DejaVuSans-101"/>
     <use x="1368.554688" xlink:href="#DejaVuSans-45"/>
     <use x="1404.638672" xlink:href="#DejaVuSans-67"/>
     <use x="1474.462891" xlink:href="#DejaVuSans-49"/>
     <use x="1538.085938" xlink:href="#DejaVuSans-55"/>
     <use x="1601.708984" xlink:href="#DejaVuSans-102"/>
     <use x="1631.414062" xlink:href="#DejaVuSans-45"/>
     <use x="1667.498047" xlink:href="#DejaVuSans-67"/>
     <use x="1737.322266" xlink:href="#DejaVuSans-51"/>
     <use x="1800.945312" xlink:href="#DejaVuSans-49"/>
     <use x="1864.568359" xlink:href="#DejaVuSans-46"/>
     <use x="1896.355469" xlink:href="#DejaVuSans-57"/>
    </g>
   </g>
   <g id="text_25">
    <!-- C1/C1b-C1u-C3-C1bo -->
    <defs>
     <path d="M 8.5 21.578125 
L 8.5 54.6875 
L 17.484375 54.6875 
L 17.484375 21.921875 
Q 17.484375 14.15625 20.5 10.265625 
Q 23.53125 6.390625 29.59375 6.390625 
Q 36.859375 6.390625 41.078125 11.03125 
Q 45.3125 15.671875 45.3125 23.6875 
L 45.3125 54.6875 
L 54.296875 54.6875 
L 54.296875 0 
L 45.3125 0 
L 45.3125 8.40625 
Q 42.046875 3.421875 37.71875 1 
Q 33.40625 -1.421875 27.6875 -1.421875 
Q 18.265625 -1.421875 13.375 4.4375 
Q 8.5 10.296875 8.5 21.578125 
z
M 31.109375 56 
z
" id="DejaVuSans-117"/>
     <path d="M 30.609375 48.390625 
Q 23.390625 48.390625 19.1875 42.75 
Q 14.984375 37.109375 14.984375 27.296875 
Q 14.984375 17.484375 19.15625 11.84375 
Q 23.34375 6.203125 30.609375 6.203125 
Q 37.796875 6.203125 41.984375 11.859375 
Q 46.1875 17.53125 46.1875 27.296875 
Q 46.1875 37.015625 41.984375 42.703125 
Q 37.796875 48.390625 30.609375 48.390625 
z
M 30.609375 56 
Q 42.328125 56 49.015625 48.375 
Q 55.71875 40.765625 55.71875 27.296875 
Q 55.71875 13.875 49.015625 6.21875 
Q 42.328125 -1.421875 30.609375 -1.421875 
Q 18.84375 -1.421875 12.171875 6.21875 
Q 5.515625 13.875 5.515625 27.296875 
Q 5.515625 40.765625 12.171875 48.375 
Q 18.84375 56 30.609375 56 
z
" id="DejaVuSans-111"/>
    </defs>
    <g transform="translate(374.307871 490.043126)scale(0.1 -0.1)">
     <use xlink:href="#DejaVuSans-67"/>
     <use x="69.824219" xlink:href="#DejaVuSans-49"/>
     <use x="133.447266" xlink:href="#DejaVuSans-47"/>
     <use x="167.138672" xlink:href="#DejaVuSans-67"/>
     <use x="236.962891" xlink:href="#DejaVuSans-49"/>
     <use x="300.585938" xlink:href="#DejaVuSans-98"/>
     <use x="364.0625" xlink:href="#DejaVuSans-45"/>
     <use x="400.146484" xlink:href="#DejaVuSans-67"/>
     <use x="469.970703" xlink:href="#DejaVuSans-49"/>
     <use x="533.59375" xlink:href="#DejaVuSans-117"/>
     <use x="596.972656" xlink:href="#DejaVuSans-45"/>
     <use x="633.056641" xlink:href="#DejaVuSans-67"/>
     <use x="702.880859" xlink:href="#DejaVuSans-51"/>
     <use x="766.503906" xlink:href="#DejaVuSans-45"/>
     <use x="802.587891" xlink:href="#DejaVuSans-67"/>
     <use x="872.412109" xlink:href="#DejaVuSans-49"/>
     <use x="936.035156" xlink:href="#DejaVuSans-98"/>
     <use x="999.511719" xlink:href="#DejaVuSans-111"/>
    </g>
   </g>
   <g id="text_26">
    <!-- C1d/C42.2/C1-C1k-C1b -->
    <g transform="translate(337.986864 588.393764)scale(0.1 -0.1)">
     <use xlink:href="#DejaVuSans-67"/>
     <use x="69.824219" xlink:href="#DejaVuSans-49"/>
     <use x="133.447266" xlink:href="#DejaVuSans-100"/>
     <use x="196.923828" xlink:href="#DejaVuSans-47"/>
     <use x="230.615234" xlink:href="#DejaVuSans-67"/>
     <use x="300.439453" xlink:href="#DejaVuSans-52"/>
     <use x="364.0625" xlink:href="#DejaVuSans-50"/>
     <use x="427.685547" xlink:href="#DejaVuSans-46"/>
     <use x="459.472656" xlink:href="#DejaVuSans-50"/>
     <use x="523.095703" xlink:href="#DejaVuSans-47"/>
     <use x="556.787109" xlink:href="#DejaVuSans-67"/>
     <use x="626.611328" xlink:href="#DejaVuSans-49"/>
     <use x="690.234375" xlink:href="#DejaVuSans-45"/>
     <use x="726.318359" xlink:href="#DejaVuSans-67"/>
     <use x="796.142578" xlink:href="#DejaVuSans-49"/>
     <use x="859.765625" xlink:href="#DejaVuSans-107"/>
     <use x="917.675781" xlink:href="#DejaVuSans-45"/>
     <use x="953.759766" xlink:href="#DejaVuSans-67"/>
     <use x="1023.583984" xlink:href="#DejaVuSans-49"/>
     <use x="1087.207031" xlink:href="#DejaVuSans-98"/>
    </g>
   </g>
   <g id="text_27">
    <!-- C1d-C1df-C42.2-C1 -->
    <g transform="translate(308.419615 554.44736)scale(0.1 -0.1)">
     <use xlink:href="#DejaVuSans-67"/>
     <use x="69.824219" xlink:href="#DejaVuSans-49"/>
     <use x="133.447266" xlink:href="#DejaVuSans-100"/>
     <use x="196.923828" xlink:href="#DejaVuSans-45"/>
     <use x="233.007812" xlink:href="#DejaVuSans-67"/>
     <use x="302.832031" xlink:href="#DejaVuSans-49"/>
     <use x="366.455078" xlink:href="#DejaVuSans-100"/>
     <use x="429.931641" xlink:href="#DejaVuSans-102"/>
     <use x="459.636719" xlink:href="#DejaVuSans-45"/>
     <use x="495.720703" xlink:href="#DejaVuSans-67"/>
     <use x="565.544922" xlink:href="#DejaVuSans-52"/>
     <use x="629.167969" xlink:href="#DejaVuSans-50"/>
     <use x="692.791016" xlink:href="#DejaVuSans-46"/>
     <use x="724.578125" xlink:href="#DejaVuSans-50"/>
     <use x="788.201172" xlink:href="#DejaVuSans-45"/>
     <use x="824.285156" xlink:href="#DejaVuSans-67"/>
     <use x="894.109375" xlink:href="#DejaVuSans-49"/>
    </g>
   </g>
   <g id="text_28">
    <!-- C15/C31/C17d-C21-C15cl -->
    <g transform="translate(98.797132 260.7082)scale(0.1 -0.1)">
     <use xlink:href="#DejaVuSans-67"/>
     <use x="69.824219" xlink:href="#DejaVuSans-49"/>
     <use x="133.447266" xlink:href="#DejaVuSans-53"/>
     <use x="197.070312" xlink:href="#DejaVuSans-47"/>
     <use x="230.761719" xlink:href="#DejaVuSans-67"/>
     <use x="300.585938" xlink:href="#DejaVuSans-51"/>
     <use x="364.208984" xlink:href="#DejaVuSans-49"/>
     <use x="427.832031" xlink:href="#DejaVuSans-47"/>
     <use x="461.523438" xlink:href="#DejaVuSans-67"/>
     <use x="531.347656" xlink:href="#DejaVuSans-49"/>
     <use x="594.970703" xlink:href="#DejaVuSans-55"/>
     <use x="658.59375" xlink:href="#DejaVuSans-100"/>
     <use x="722.070312" xlink:href="#DejaVuSans-45"/>
     <use x="758.154297" xlink:href="#DejaVuSans-67"/>
     <use x="827.978516" xlink:href="#DejaVuSans-50"/>
     <use x="891.601562" xlink:href="#DejaVuSans-49"/>
     <use x="955.224609" xlink:href="#DejaVuSans-45"/>
     <use x="991.308594" xlink:href="#DejaVuSans-67"/>
     <use x="1061.132812" xlink:href="#DejaVuSans-49"/>
     <use x="1124.755859" xlink:href="#DejaVuSans-53"/>
     <use x="1188.378906" xlink:href="#DejaVuSans-99"/>
     <use x="1243.359375" xlink:href="#DejaVuSans-108"/>
    </g>
   </g>
   <g id="text_29">
    <!-- C1/C3 -->
    <g transform="translate(372.925271 487.67423)scale(0.1 -0.1)">
     <use xlink:href="#DejaVuSans-67"/>
     <use x="69.824219" xlink:href="#DejaVuSans-49"/>
     <use x="133.447266" xlink:href="#DejaVuSans-47"/>
     <use x="167.138672" xlink:href="#DejaVuSans-67"/>
     <use x="236.962891" xlink:href="#DejaVuSans-51"/>
    </g>
   </g>
   <g id="text_30">
    <!-- C31-C17d-C31.1-C31a-C21-C17e-C21ac -->
    <g transform="translate(66.112277 502.474258)scale(0.1 -0.1)">
     <use xlink:href="#DejaVuSans-67"/>
     <use x="69.824219" xlink:href="#DejaVuSans-51"/>
     <use x="133.447266" xlink:href="#DejaVuSans-49"/>
     <use x="197.070312" xlink:href="#DejaVuSans-45"/>
     <use x="233.154297" xlink:href="#DejaVuSans-67"/>
     <use x="302.978516" xlink:href="#DejaVuSans-49"/>
     <use x="366.601562" xlink:href="#DejaVuSans-55"/>
     <use x="430.224609" xlink:href="#DejaVuSans-100"/>
     <use x="493.701172" xlink:href="#DejaVuSans-45"/>
     <use x="529.785156" xlink:href="#DejaVuSans-67"/>
     <use x="599.609375" xlink:href="#DejaVuSans-51"/>
     <use x="663.232422" xlink:href="#DejaVuSans-49"/>
     <use x="726.855469" xlink:href="#DejaVuSans-46"/>
     <use x="758.642578" xlink:href="#DejaVuSans-49"/>
     <use x="822.265625" xlink:href="#DejaVuSans-45"/>
     <use x="858.349609" xlink:href="#DejaVuSans-67"/>
     <use x="928.173828" xlink:href="#DejaVuSans-51"/>
     <use x="991.796875" xlink:href="#DejaVuSans-49"/>
     <use x="1055.419922" xlink:href="#DejaVuSans-97"/>
     <use x="1116.699219" xlink:href="#DejaVuSans-45"/>
     <use x="1152.783203" xlink:href="#DejaVuSans-67"/>
     <use x="1222.607422" xlink:href="#DejaVuSans-50"/>
     <use x="1286.230469" xlink:href="#DejaVuSans-49"/>
     <use x="1349.853516" xlink:href="#DejaVuSans-45"/>
     <use x="1385.9375" xlink:href="#DejaVuSans-67"/>
     <use x="1455.761719" xlink:href="#DejaVuSans-49"/>
     <use x="1519.384766" xlink:href="#DejaVuSans-55"/>
     <use x="1583.007812" xlink:href="#DejaVuSans-101"/>
     <use x="1644.53125" xlink:href="#DejaVuSans-45"/>
     <use x="1680.615234" xlink:href="#DejaVuSans-67"/>
     <use x="1750.439453" xlink:href="#DejaVuSans-50"/>
     <use x="1814.0625" xlink:href="#DejaVuSans-49"/>
     <use x="1877.685547" xlink:href="#DejaVuSans-97"/>
     <use x="1938.964844" xlink:href="#DejaVuSans-99"/>
    </g>
   </g>
   <g id="text_31">
    <!-- C31/C17d-C21-C21ac-C31.9 -->
    <g transform="translate(58.772373 505.912991)scale(0.1 -0.1)">
     <use xlink:href="#DejaVuSans-67"/>
     <use x="69.824219" xlink:href="#DejaVuSans-51"/>
     <use x="133.447266" xlink:href="#DejaVuSans-49"/>
     <use x="197.070312" xlink:href="#DejaVuSans-47"/>
     <use x="230.761719" xlink:href="#DejaVuSans-67"/>
     <use x="300.585938" xlink:href="#DejaVuSans-49"/>
     <use x="364.208984" xlink:href="#DejaVuSans-55"/>
     <use x="427.832031" xlink:href="#DejaVuSans-100"/>
     <use x="491.308594" xlink:href="#DejaVuSans-45"/>
     <use x="527.392578" xlink:href="#DejaVuSans-67"/>
     <use x="597.216797" xlink:href="#DejaVuSans-50"/>
     <use x="660.839844" xlink:href="#DejaVuSans-49"/>
     <use x="724.462891" xlink:href="#DejaVuSans-45"/>
     <use x="760.546875" xlink:href="#DejaVuSans-67"/>
     <use x="830.371094" xlink:href="#DejaVuSans-50"/>
     <use x="893.994141" xlink:href="#DejaVuSans-49"/>
     <use x="957.617188" xlink:href="#DejaVuSans-97"/>
     <use x="1018.896484" xlink:href="#DejaVuSans-99"/>
     <use x="1073.876953" xlink:href="#DejaVuSans-45"/>
     <use x="1109.960938" xlink:href="#DejaVuSans-67"/>
     <use x="1179.785156" xlink:href="#DejaVuSans-51"/>
     <use x="1243.408203" xlink:href="#DejaVuSans-49"/>
     <use x="1307.03125" xlink:href="#DejaVuSans-46"/>
     <use x="1338.818359" xlink:href="#DejaVuSans-57"/>
    </g>
   </g>
   <g id="text_32">
    <!-- C15/C1/C3/C1b -->
    <g transform="translate(363.250345 274.40651)scale(0.1 -0.1)">
     <use xlink:href="#DejaVuSans-67"/>
     <use x="69.824219" xlink:href="#DejaVuSans-49"/>
     <use x="133.447266" xlink:href="#DejaVuSans-53"/>
     <use x="197.070312" xlink:href="#DejaVuSans-47"/>
     <use x="230.761719" xlink:href="#DejaVuSans-67"/>
     <use x="300.585938" xlink:href="#DejaVuSans-49"/>
     <use x="364.208984" xlink:href="#DejaVuSans-47"/>
     <use x="397.900391" xlink:href="#DejaVuSans-67"/>
     <use x="467.724609" xlink:href="#DejaVuSans-51"/>
     <use x="531.347656" xlink:href="#DejaVuSans-47"/>
     <use x="565.039062" xlink:href="#DejaVuSans-67"/>
     <use x="634.863281" xlink:href="#DejaVuSans-49"/>
     <use x="698.486328" xlink:href="#DejaVuSans-98"/>
    </g>
   </g>
   <g id="text_33">
    <!-- C1d/C42.2/C1 -->
    <g transform="translate(344.901925 591.494158)scale(0.1 -0.1)">
     <use xlink:href="#DejaVuSans-67"/>
     <use x="69.824219" xlink:href="#DejaVuSans-49"/>
     <use x="133.447266" xlink:href="#DejaVuSans-100"/>
     <use x="196.923828" xlink:href="#DejaVuSans-47"/>
     <use x="230.615234" xlink:href="#DejaVuSans-67"/>
     <use x="300.439453" xlink:href="#DejaVuSans-52"/>
     <use x="364.0625" xlink:href="#DejaVuSans-50"/>
     <use x="427.685547" xlink:href="#DejaVuSans-46"/>
     <use x="459.472656" xlink:href="#DejaVuSans-50"/>
     <use x="523.095703" xlink:href="#DejaVuSans-47"/>
     <use x="556.787109" xlink:href="#DejaVuSans-67"/>
     <use x="626.611328" xlink:href="#DejaVuSans-49"/>
    </g>
   </g>
   <g id="text_34">
    <!-- C1/C42.2/C3cg/C1j-C1b-C3-C1au-C45c-C115k -->
    <defs>
     <path d="M 45.40625 27.984375 
Q 45.40625 37.75 41.375 43.109375 
Q 37.359375 48.484375 30.078125 48.484375 
Q 22.859375 48.484375 18.828125 43.109375 
Q 14.796875 37.75 14.796875 27.984375 
Q 14.796875 18.265625 18.828125 12.890625 
Q 22.859375 7.515625 30.078125 7.515625 
Q 37.359375 7.515625 41.375 12.890625 
Q 45.40625 18.265625 45.40625 27.984375 
z
M 54.390625 6.78125 
Q 54.390625 -7.171875 48.1875 -13.984375 
Q 42 -20.796875 29.203125 -20.796875 
Q 24.46875 -20.796875 20.265625 -20.09375 
Q 16.0625 -19.390625 12.109375 -17.921875 
L 12.109375 -9.1875 
Q 16.0625 -11.328125 19.921875 -12.34375 
Q 23.78125 -13.375 27.78125 -13.375 
Q 36.625 -13.375 41.015625 -8.765625 
Q 45.40625 -4.15625 45.40625 5.171875 
L 45.40625 9.625 
Q 42.625 4.78125 38.28125 2.390625 
Q 33.9375 0 27.875 0 
Q 17.828125 0 11.671875 7.65625 
Q 5.515625 15.328125 5.515625 27.984375 
Q 5.515625 40.671875 11.671875 48.328125 
Q 17.828125 56 27.875 56 
Q 33.9375 56 38.28125 53.609375 
Q 42.625 51.21875 45.40625 46.390625 
L 45.40625 54.6875 
L 54.390625 54.6875 
z
" id="DejaVuSans-103"/>
    </defs>
    <g transform="translate(392.219843 545.115542)scale(0.1 -0.1)">
     <use xlink:href="#DejaVuSans-67"/>
     <use x="69.824219" xlink:href="#DejaVuSans-49"/>
     <use x="133.447266" xlink:href="#DejaVuSans-47"/>
     <use x="167.138672" xlink:href="#DejaVuSans-67"/>
     <use x="236.962891" xlink:href="#DejaVuSans-52"/>
     <use x="300.585938" xlink:href="#DejaVuSans-50"/>
     <use x="364.208984" xlink:href="#DejaVuSans-46"/>
     <use x="395.996094" xlink:href="#DejaVuSans-50"/>
     <use x="459.619141" xlink:href="#DejaVuSans-47"/>
     <use x="493.310547" xlink:href="#DejaVuSans-67"/>
     <use x="563.134766" xlink:href="#DejaVuSans-51"/>
     <use x="626.757812" xlink:href="#DejaVuSans-99"/>
     <use x="681.738281" xlink:href="#DejaVuSans-103"/>
     <use x="745.214844" xlink:href="#DejaVuSans-47"/>
     <use x="778.90625" xlink:href="#DejaVuSans-67"/>
     <use x="848.730469" xlink:href="#DejaVuSans-49"/>
     <use x="912.353516" xlink:href="#DejaVuSans-106"/>
     <use x="940.136719" xlink:href="#DejaVuSans-45"/>
     <use x="976.220703" xlink:href="#DejaVuSans-67"/>
     <use x="1046.044922" xlink:href="#DejaVuSans-49"/>
     <use x="1109.667969" xlink:href="#DejaVuSans-98"/>
     <use x="1173.144531" xlink:href="#DejaVuSans-45"/>
     <use x="1209.228516" xlink:href="#DejaVuSans-67"/>
     <use x="1279.052734" xlink:href="#DejaVuSans-51"/>
     <use x="1342.675781" xlink:href="#DejaVuSans-45"/>
     <use x="1378.759766" xlink:href="#DejaVuSans-67"/>
     <use x="1448.583984" xlink:href="#DejaVuSans-49"/>
     <use x="1512.207031" xlink:href="#DejaVuSans-97"/>
     <use x="1573.486328" xlink:href="#DejaVuSans-117"/>
     <use x="1636.865234" xlink:href="#DejaVuSans-45"/>
     <use x="1672.949219" xlink:href="#DejaVuSans-67"/>
     <use x="1742.773438" xlink:href="#DejaVuSans-52"/>
     <use x="1806.396484" xlink:href="#DejaVuSans-53"/>
     <use x="1870.019531" xlink:href="#DejaVuSans-99"/>
     <use x="1925" xlink:href="#DejaVuSans-45"/>
     <use x="1961.083984" xlink:href="#DejaVuSans-67"/>
     <use x="2030.908203" xlink:href="#DejaVuSans-49"/>
     <use x="2094.53125" xlink:href="#DejaVuSans-49"/>
     <use x="2158.154297" xlink:href="#DejaVuSans-53"/>
     <use x="2221.777344" xlink:href="#DejaVuSans-107"/>
    </g>
   </g>
   <g id="text_35">
    <!-- C42.2/C1-C1b-C3-C1au -->
    <g transform="translate(389.141697 543.165123)scale(0.1 -0.1)">
     <use xlink:href="#DejaVuSans-67"/>
     <use x="69.824219" xlink:href="#DejaVuSans-52"/>
     <use x="133.447266" xlink:href="#DejaVuSans-50"/>
     <use x="197.070312" xlink:href="#DejaVuSans-46"/>
     <use x="228.857422" xlink:href="#DejaVuSans-50"/>
     <use x="292.480469" xlink:href="#DejaVuSans-47"/>
     <use x="326.171875" xlink:href="#DejaVuSans-67"/>
     <use x="395.996094" xlink:href="#DejaVuSans-49"/>
     <use x="459.619141" xlink:href="#DejaVuSans-45"/>
     <use x="495.703125" xlink:href="#DejaVuSans-67"/>
     <use x="565.527344" xlink:href="#DejaVuSans-49"/>
     <use x="629.150391" xlink:href="#DejaVuSans-98"/>
     <use x="692.626953" xlink:href="#DejaVuSans-45"/>
     <use x="728.710938" xlink:href="#DejaVuSans-67"/>
     <use x="798.535156" xlink:href="#DejaVuSans-51"/>
     <use x="862.158203" xlink:href="#DejaVuSans-45"/>
     <use x="898.242188" xlink:href="#DejaVuSans-67"/>
     <use x="968.066406" xlink:href="#DejaVuSans-49"/>
     <use x="1031.689453" xlink:href="#DejaVuSans-97"/>
     <use x="1092.96875" xlink:href="#DejaVuSans-117"/>
    </g>
   </g>
   <g id="text_36">
    <!-- C15h -->
    <g transform="translate(257.362197 284.973468)scale(0.1 -0.1)">
     <use xlink:href="#DejaVuSans-67"/>
     <use x="69.824219" xlink:href="#DejaVuSans-49"/>
     <use x="133.447266" xlink:href="#DejaVuSans-53"/>
     <use x="197.070312" xlink:href="#DejaVuSans-104"/>
    </g>
   </g>
   <g id="text_37">
    <!-- C31-C17d-C21-C21ac-C31.1-C31a -->
    <g transform="translate(61.189739 504.217637)scale(0.1 -0.1)">
     <use xlink:href="#DejaVuSans-67"/>
     <use x="69.824219" xlink:href="#DejaVuSans-51"/>
     <use x="133.447266" xlink:href="#DejaVuSans-49"/>
     <use x="197.070312" xlink:href="#DejaVuSans-45"/>
     <use x="233.154297" xlink:href="#DejaVuSans-67"/>
     <use x="302.978516" xlink:href="#DejaVuSans-49"/>
     <use x="366.601562" xlink:href="#DejaVuSans-55"/>
     <use x="430.224609" xlink:href="#DejaVuSans-100"/>
     <use x="493.701172" xlink:href="#DejaVuSans-45"/>
     <use x="529.785156" xlink:href="#DejaVuSans-67"/>
     <use x="599.609375" xlink:href="#DejaVuSans-50"/>
     <use x="663.232422" xlink:href="#DejaVuSans-49"/>
     <use x="726.855469" xlink:href="#DejaVuSans-45"/>
     <use x="762.939453" xlink:href="#DejaVuSans-67"/>
     <use x="832.763672" xlink:href="#DejaVuSans-50"/>
     <use x="896.386719" xlink:href="#DejaVuSans-49"/>
     <use x="960.009766" xlink:href="#DejaVuSans-97"/>
     <use x="1021.289062" xlink:href="#DejaVuSans-99"/>
     <use x="1076.269531" xlink:href="#DejaVuSans-45"/>
     <use x="1112.353516" xlink:href="#DejaVuSans-67"/>
     <use x="1182.177734" xlink:href="#DejaVuSans-51"/>
     <use x="1245.800781" xlink:href="#DejaVuSans-49"/>
     <use x="1309.423828" xlink:href="#DejaVuSans-46"/>
     <use x="1341.210938" xlink:href="#DejaVuSans-49"/>
     <use x="1404.833984" xlink:href="#DejaVuSans-45"/>
     <use x="1440.917969" xlink:href="#DejaVuSans-67"/>
     <use x="1510.742188" xlink:href="#DejaVuSans-51"/>
     <use x="1574.365234" xlink:href="#DejaVuSans-49"/>
     <use x="1637.988281" xlink:href="#DejaVuSans-97"/>
    </g>
   </g>
   <g id="text_38">
    <!-- C31-C17d-C21-C31a-C21ac-C31g -->
    <g transform="translate(61.069659 504.040938)scale(0.1 -0.1)">
     <use xlink:href="#DejaVuSans-67"/>
     <use x="69.824219" xlink:href="#DejaVuSans-51"/>
     <use x="133.447266" xlink:href="#DejaVuSans-49"/>
     <use x="197.070312" xlink:href="#DejaVuSans-45"/>
     <use x="233.154297" xlink:href="#DejaVuSans-67"/>
     <use x="302.978516" xlink:href="#DejaVuSans-49"/>
     <use x="366.601562" xlink:href="#DejaVuSans-55"/>
     <use x="430.224609" xlink:href="#DejaVuSans-100"/>
     <use x="493.701172" xlink:href="#DejaVuSans-45"/>
     <use x="529.785156" xlink:href="#DejaVuSans-67"/>
     <use x="599.609375" xlink:href="#DejaVuSans-50"/>
     <use x="663.232422" xlink:href="#DejaVuSans-49"/>
     <use x="726.855469" xlink:href="#DejaVuSans-45"/>
     <use x="762.939453" xlink:href="#DejaVuSans-67"/>
     <use x="832.763672" xlink:href="#DejaVuSans-51"/>
     <use x="896.386719" xlink:href="#DejaVuSans-49"/>
     <use x="960.009766" xlink:href="#DejaVuSans-97"/>
     <use x="1021.289062" xlink:href="#DejaVuSans-45"/>
     <use x="1057.373047" xlink:href="#DejaVuSans-67"/>
     <use x="1127.197266" xlink:href="#DejaVuSans-50"/>
     <use x="1190.820312" xlink:href="#DejaVuSans-49"/>
     <use x="1254.443359" xlink:href="#DejaVuSans-97"/>
     <use x="1315.722656" xlink:href="#DejaVuSans-99"/>
     <use x="1370.703125" xlink:href="#DejaVuSans-45"/>
     <use x="1406.787109" xlink:href="#DejaVuSans-67"/>
     <use x="1476.611328" xlink:href="#DejaVuSans-51"/>
     <use x="1540.234375" xlink:href="#DejaVuSans-49"/>
     <use x="1603.857422" xlink:href="#DejaVuSans-103"/>
    </g>
   </g>
   <g id="text_39">
    <!-- C1d-C42.2-C1ag-C1k-C42ax-C42ay-C1 -->
    <defs>
     <path d="M 54.890625 54.6875 
L 35.109375 28.078125 
L 55.90625 0 
L 45.3125 0 
L 29.390625 21.484375 
L 13.484375 0 
L 2.875 0 
L 24.125 28.609375 
L 4.6875 54.6875 
L 15.28125 54.6875 
L 29.78125 35.203125 
L 44.28125 54.6875 
z
" id="DejaVuSans-120"/>
     <path d="M 32.171875 -5.078125 
Q 28.375 -14.84375 24.75 -17.8125 
Q 21.140625 -20.796875 15.09375 -20.796875 
L 7.90625 -20.796875 
L 7.90625 -13.28125 
L 13.1875 -13.28125 
Q 16.890625 -13.28125 18.9375 -11.515625 
Q 21 -9.765625 23.484375 -3.21875 
L 25.09375 0.875 
L 2.984375 54.6875 
L 12.5 54.6875 
L 29.59375 11.921875 
L 46.6875 54.6875 
L 56.203125 54.6875 
z
" id="DejaVuSans-121"/>
    </defs>
    <g transform="translate(321.691569 557.757545)scale(0.1 -0.1)">
     <use xlink:href="#DejaVuSans-67"/>
     <use x="69.824219" xlink:href="#DejaVuSans-49"/>
     <use x="133.447266" xlink:href="#DejaVuSans-100"/>
     <use x="196.923828" xlink:href="#DejaVuSans-45"/>
     <use x="233.007812" xlink:href="#DejaVuSans-67"/>
     <use x="302.832031" xlink:href="#DejaVuSans-52"/>
     <use x="366.455078" xlink:href="#DejaVuSans-50"/>
     <use x="430.078125" xlink:href="#DejaVuSans-46"/>
     <use x="461.865234" xlink:href="#DejaVuSans-50"/>
     <use x="525.488281" xlink:href="#DejaVuSans-45"/>
     <use x="561.572266" xlink:href="#DejaVuSans-67"/>
     <use x="631.396484" xlink:href="#DejaVuSans-49"/>
     <use x="695.019531" xlink:href="#DejaVuSans-97"/>
     <use x="756.298828" xlink:href="#DejaVuSans-103"/>
     <use x="819.775391" xlink:href="#DejaVuSans-45"/>
     <use x="855.859375" xlink:href="#DejaVuSans-67"/>
     <use x="925.683594" xlink:href="#DejaVuSans-49"/>
     <use x="989.306641" xlink:href="#DejaVuSans-107"/>
     <use x="1047.216797" xlink:href="#DejaVuSans-45"/>
     <use x="1083.300781" xlink:href="#DejaVuSans-67"/>
     <use x="1153.125" xlink:href="#DejaVuSans-52"/>
     <use x="1216.748047" xlink:href="#DejaVuSans-50"/>
     <use x="1280.371094" xlink:href="#DejaVuSans-97"/>
     <use x="1341.650391" xlink:href="#DejaVuSans-120"/>
     <use x="1400.830078" xlink:href="#DejaVuSans-45"/>
     <use x="1436.914062" xlink:href="#DejaVuSans-67"/>
     <use x="1506.738281" xlink:href="#DejaVuSans-52"/>
     <use x="1570.361328" xlink:href="#DejaVuSans-50"/>
     <use x="1633.984375" xlink:href="#DejaVuSans-97"/>
     <use x="1695.263672" xlink:href="#DejaVuSans-121"/>
     <use x="1752.693359" xlink:href="#DejaVuSans-45"/>
     <use x="1788.777344" xlink:href="#DejaVuSans-67"/>
     <use x="1858.601562" xlink:href="#DejaVuSans-49"/>
    </g>
   </g>
   <g id="text_40">
    <!-- C1/C1d/C42.2/C3-C1b-C3cg-C45c-C115k-C1au-C41p -->
    <defs>
     <path d="M 18.109375 8.203125 
L 18.109375 -20.796875 
L 9.078125 -20.796875 
L 9.078125 54.6875 
L 18.109375 54.6875 
L 18.109375 46.390625 
Q 20.953125 51.265625 25.265625 53.625 
Q 29.59375 56 35.59375 56 
Q 45.5625 56 51.78125 48.09375 
Q 58.015625 40.1875 58.015625 27.296875 
Q 58.015625 14.40625 51.78125 6.484375 
Q 45.5625 -1.421875 35.59375 -1.421875 
Q 29.59375 -1.421875 25.265625 0.953125 
Q 20.953125 3.328125 18.109375 8.203125 
z
M 48.6875 27.296875 
Q 48.6875 37.203125 44.609375 42.84375 
Q 40.53125 48.484375 33.40625 48.484375 
Q 26.265625 48.484375 22.1875 42.84375 
Q 18.109375 37.203125 18.109375 27.296875 
Q 18.109375 17.390625 22.1875 11.75 
Q 26.265625 6.109375 33.40625 6.109375 
Q 40.53125 6.109375 44.609375 11.75 
Q 48.6875 17.390625 48.6875 27.296875 
z
" id="DejaVuSans-112"/>
    </defs>
    <g transform="translate(384.620376 586.040815)scale(0.1 -0.1)">
     <use xlink:href="#DejaVuSans-67"/>
     <use x="69.824219" xlink:href="#DejaVuSans-49"/>
     <use x="133.447266" xlink:href="#DejaVuSans-47"/>
     <use x="167.138672" xlink:href="#DejaVuSans-67"/>
     <use x="236.962891" xlink:href="#DejaVuSans-49"/>
     <use x="300.585938" xlink:href="#DejaVuSans-100"/>
     <use x="364.0625" xlink:href="#DejaVuSans-47"/>
     <use x="397.753906" xlink:href="#DejaVuSans-67"/>
     <use x="467.578125" xlink:href="#DejaVuSans-52"/>
     <use x="531.201172" xlink:href="#DejaVuSans-50"/>
     <use x="594.824219" xlink:href="#DejaVuSans-46"/>
     <use x="626.611328" xlink:href="#DejaVuSans-50"/>
     <use x="690.234375" xlink:href="#DejaVuSans-47"/>
     <use x="723.925781" xlink:href="#DejaVuSans-67"/>
     <use x="793.75" xlink:href="#DejaVuSans-51"/>
     <use x="857.373047" xlink:href="#DejaVuSans-45"/>
     <use x="893.457031" xlink:href="#DejaVuSans-67"/>
     <use x="963.28125" xlink:href="#DejaVuSans-49"/>
     <use x="1026.904297" xlink:href="#DejaVuSans-98"/>
     <use x="1090.380859" xlink:href="#DejaVuSans-45"/>
     <use x="1126.464844" xlink:href="#DejaVuSans-67"/>
     <use x="1196.289062" xlink:href="#DejaVuSans-51"/>
     <use x="1259.912109" xlink:href="#DejaVuSans-99"/>
     <use x="1314.892578" xlink:href="#DejaVuSans-103"/>
     <use x="1378.369141" xlink:href="#DejaVuSans-45"/>
     <use x="1414.453125" xlink:href="#DejaVuSans-67"/>
     <use x="1484.277344" xlink:href="#DejaVuSans-52"/>
     <use x="1547.900391" xlink:href="#DejaVuSans-53"/>
     <use x="1611.523438" xlink:href="#DejaVuSans-99"/>
     <use x="1666.503906" xlink:href="#DejaVuSans-45"/>
     <use x="1702.587891" xlink:href="#DejaVuSans-67"/>
     <use x="1772.412109" xlink:href="#DejaVuSans-49"/>
     <use x="1836.035156" xlink:href="#DejaVuSans-49"/>
     <use x="1899.658203" xlink:href="#DejaVuSans-53"/>
     <use x="1963.28125" xlink:href="#DejaVuSans-107"/>
     <use x="2021.191406" xlink:href="#DejaVuSans-45"/>
     <use x="2057.275391" xlink:href="#DejaVuSans-67"/>
     <use x="2127.099609" xlink:href="#DejaVuSans-49"/>
     <use x="2190.722656" xlink:href="#DejaVuSans-97"/>
     <use x="2252.001953" xlink:href="#DejaVuSans-117"/>
     <use x="2315.380859" xlink:href="#DejaVuSans-45"/>
     <use x="2351.464844" xlink:href="#DejaVuSans-67"/>
     <use x="2421.289062" xlink:href="#DejaVuSans-52"/>
     <use x="2484.912109" xlink:href="#DejaVuSans-49"/>
     <use x="2548.535156" xlink:href="#DejaVuSans-112"/>
    </g>
   </g>
   <g id="text_41">
    <!-- between its2 type profile distances clade C braycurtis no_sqrt -->
    <defs>
     <path d="M 18.3125 70.21875 
L 18.3125 54.6875 
L 36.8125 54.6875 
L 36.8125 47.703125 
L 18.3125 47.703125 
L 18.3125 18.015625 
Q 18.3125 11.328125 20.140625 9.421875 
Q 21.96875 7.515625 27.59375 7.515625 
L 36.8125 7.515625 
L 36.8125 0 
L 27.59375 0 
Q 17.1875 0 13.234375 3.875 
Q 9.28125 7.765625 9.28125 18.015625 
L 9.28125 47.703125 
L 2.6875 47.703125 
L 2.6875 54.6875 
L 9.28125 54.6875 
L 9.28125 70.21875 
z
" id="DejaVuSans-116"/>
     <path id="DejaVuSans-32"/>
     <path d="M 44.28125 53.078125 
L 44.28125 44.578125 
Q 40.484375 46.53125 36.375 47.5 
Q 32.28125 48.484375 27.875 48.484375 
Q 21.1875 48.484375 17.84375 46.4375 
Q 14.5 44.390625 14.5 40.28125 
Q 14.5 37.15625 16.890625 35.375 
Q 19.28125 33.59375 26.515625 31.984375 
L 29.59375 31.296875 
Q 39.15625 29.25 43.1875 25.515625 
Q 47.21875 21.78125 47.21875 15.09375 
Q 47.21875 7.46875 41.1875 3.015625 
Q 35.15625 -1.421875 24.609375 -1.421875 
Q 20.21875 -1.421875 15.453125 -0.5625 
Q 10.6875 0.296875 5.421875 2 
L 5.421875 11.28125 
Q 10.40625 8.6875 15.234375 7.390625 
Q 20.0625 6.109375 24.8125 6.109375 
Q 31.15625 6.109375 34.5625 8.28125 
Q 37.984375 10.453125 37.984375 14.40625 
Q 37.984375 18.0625 35.515625 20.015625 
Q 33.0625 21.96875 24.703125 23.78125 
L 21.578125 24.515625 
Q 13.234375 26.265625 9.515625 29.90625 
Q 5.8125 33.546875 5.8125 39.890625 
Q 5.8125 47.609375 11.28125 51.796875 
Q 16.75 56 26.8125 56 
Q 31.78125 56 36.171875 55.265625 
Q 40.578125 54.546875 44.28125 53.078125 
z
" id="DejaVuSans-115"/>
     <path d="M 41.109375 46.296875 
Q 39.59375 47.171875 37.8125 47.578125 
Q 36.03125 48 33.890625 48 
Q 26.265625 48 22.1875 43.046875 
Q 18.109375 38.09375 18.109375 28.8125 
L 18.109375 0 
L 9.078125 0 
L 9.078125 54.6875 
L 18.109375 54.6875 
L 18.109375 46.1875 
Q 20.953125 51.171875 25.484375 53.578125 
Q 30.03125 56 36.53125 56 
Q 37.453125 56 38.578125 55.875 
Q 39.703125 55.765625 41.0625 55.515625 
z
" id="DejaVuSans-114"/>
     <path d="M 50.984375 -16.609375 
L 50.984375 -23.578125 
L -0.984375 -23.578125 
L -0.984375 -16.609375 
z
" id="DejaVuSans-95"/>
     <path d="M 14.796875 27.296875 
Q 14.796875 17.390625 18.875 11.75 
Q 22.953125 6.109375 30.078125 6.109375 
Q 37.203125 6.109375 41.296875 11.75 
Q 45.40625 17.390625 45.40625 27.296875 
Q 45.40625 37.203125 41.296875 42.84375 
Q 37.203125 48.484375 30.078125 48.484375 
Q 22.953125 48.484375 18.875 42.84375 
Q 14.796875 37.203125 14.796875 27.296875 
z
M 45.40625 8.203125 
Q 42.578125 3.328125 38.25 0.953125 
Q 33.9375 -1.421875 27.875 -1.421875 
Q 17.96875 -1.421875 11.734375 6.484375 
Q 5.515625 14.40625 5.515625 27.296875 
Q 5.515625 40.1875 11.734375 48.09375 
Q 17.96875 56 27.875 56 
Q 33.9375 56 38.25 53.625 
Q 42.578125 51.265625 45.40625 46.390625 
L 45.40625 54.6875 
L 54.390625 54.6875 
L 54.390625 -20.796875 
L 45.40625 -20.796875 
z
" id="DejaVuSans-113"/>
    </defs>
    <g transform="translate(39.651733 19.44)scale(0.12 -0.12)">
     <use xlink:href="#DejaVuSans-98"/>
     <use x="63.476562" xlink:href="#DejaVuSans-101"/>
     <use x="125" xlink:href="#DejaVuSans-116"/>
     <use x="164.208984" xlink:href="#DejaVuSans-119"/>
     <use x="245.996094" xlink:href="#DejaVuSans-101"/>
     <use x="307.519531" xlink:href="#DejaVuSans-101"/>
     <use x="369.042969" xlink:href="#DejaVuSans-110"/>
     <use x="432.421875" xlink:href="#DejaVuSans-32"/>
     <use x="464.208984" xlink:href="#DejaVuSans-105"/>
     <use x="491.992188" xlink:href="#DejaVuSans-116"/>
     <use x="531.201172" xlink:href="#DejaVuSans-115"/>
     <use x="583.300781" xlink:href="#DejaVuSans-50"/>
     <use x="646.923828" xlink:href="#DejaVuSans-32"/>
     <use x="678.710938" xlink:href="#DejaVuSans-116"/>
     <use x="717.919922" xlink:href="#DejaVuSans-121"/>
     <use x="777.099609" xlink:href="#DejaVuSans-112"/>
     <use x="840.576172" xlink:href="#DejaVuSans-101"/>
     <use x="902.099609" xlink:href="#DejaVuSans-32"/>
     <use x="933.886719" xlink:href="#DejaVuSans-112"/>
     <use x="997.363281" xlink:href="#DejaVuSans-114"/>
     <use x="1036.226562" xlink:href="#DejaVuSans-111"/>
     <use x="1097.408203" xlink:href="#DejaVuSans-102"/>
     <use x="1132.613281" xlink:href="#DejaVuSans-105"/>
     <use x="1160.396484" xlink:href="#DejaVuSans-108"/>
     <use x="1188.179688" xlink:href="#DejaVuSans-101"/>
     <use x="1249.703125" xlink:href="#DejaVuSans-32"/>
     <use x="1281.490234" xlink:href="#DejaVuSans-100"/>
     <use x="1344.966797" xlink:href="#DejaVuSans-105"/>
     <use x="1372.75" xlink:href="#DejaVuSans-115"/>
     <use x="1424.849609" xlink:href="#DejaVuSans-116"/>
     <use x="1464.058594" xlink:href="#DejaVuSans-97"/>
     <use x="1525.337891" xlink:href="#DejaVuSans-110"/>
     <use x="1588.716797" xlink:href="#DejaVuSans-99"/>
     <use x="1643.697266" xlink:href="#DejaVuSans-101"/>
     <use x="1705.220703" xlink:href="#DejaVuSans-115"/>
     <use x="1757.320312" xlink:href="#DejaVuSans-32"/>
     <use x="1789.107422" xlink:href="#DejaVuSans-99"/>
     <use x="1844.087891" xlink:href="#DejaVuSans-108"/>
     <use x="1871.871094" xlink:href="#DejaVuSans-97"/>
     <use x="1933.150391" xlink:href="#DejaVuSans-100"/>
     <use x="1996.626953" xlink:href="#DejaVuSans-101"/>
     <use x="2058.150391" xlink:href="#DejaVuSans-32"/>
     <use x="2089.9375" xlink:href="#DejaVuSans-67"/>
     <use x="2159.761719" xlink:href="#DejaVuSans-32"/>
     <use x="2191.548828" xlink:href="#DejaVuSans-98"/>
     <use x="2255.025391" xlink:href="#DejaVuSans-114"/>
     <use x="2296.138672" xlink:href="#DejaVuSans-97"/>
     <use x="2357.417969" xlink:href="#DejaVuSans-121"/>
     <use x="2416.597656" xlink:href="#DejaVuSans-99"/>
     <use x="2471.578125" xlink:href="#DejaVuSans-117"/>
     <use x="2534.957031" xlink:href="#DejaVuSans-114"/>
     <use x="2576.070312" xlink:href="#DejaVuSans-116"/>
     <use x="2615.279297" xlink:href="#DejaVuSans-105"/>
     <use x="2643.0625" xlink:href="#DejaVuSans-115"/>
     <use x="2695.162109" xlink:href="#DejaVuSans-32"/>
     <use x="2726.949219" xlink:href="#DejaVuSans-110"/>
     <use x="2790.328125" xlink:href="#DejaVuSans-111"/>
     <use x="2851.509766" xlink:href="#DejaVuSans-95"/>
     <use x="2901.509766" xlink:href="#DejaVuSans-115"/>
     <use x="2953.609375" xlink:href="#DejaVuSans-113"/>
     <use x="3017.085938" xlink:href="#DejaVuSans-114"/>
     <use x="3058.199219" xlink:href="#DejaVuSans-116"/>
    </g>
   </g>
  </g>
 </g>
 <defs>
  <clipPath id="p5b6f649161">
   <rect height="594.68" width="366.792216" x="42.1" y="25.44"/>
  </clipPath>
 </defs>
</svg>
